STARTFONT 2.1
COMMENT Copyright (C) 1990-1991 EWT Consulting
COMMENT Portions Copyright (C) 1994-1995 Cronyx Ltd.
COMMENT Changes Copyright (C) 1996 by Andrey A. Chernov, Moscow, Russia.
COMMENT Modified by Serge Vakulenko, <vak@cronyx.ru>
COMMENT This software may be used, modified, copied, distributed, and sold,
COMMENT in both source and binary form provided that the copyright
COMMENT and these terms are retained. Under no circumstances is the author
COMMENT responsible for the proper functioning of this software, nor does
COMMENT the author assume any responsibility for damages incurred with its use.
COMMENT $XFree86: xc/fonts/bdf/cyrillic/crox6to.bdf,v 3.2 1996/09/01 12:18:57 dawes Exp $
FONT -Cronyx-Times-Medium-I-Normal--34-240-100-100-P-124-KOI8-R
SIZE 24 96 96
FONTBOUNDINGBOX 44 35 -1 -8
STARTPROPERTIES 19
DEFAULT_CHAR 32
FONT_ASCENT 27
FONT_DESCENT 8
SPACING "P"
FONTNAME_REGISTRY ""
FOUNDRY "Cronyx"
FAMILY_NAME "Times"
WEIGHT_NAME "Medium"
SLANT "I"
SETWIDTH_NAME "Normal"
ADD_STYLE_NAME ""
AVERAGE_WIDTH 124
CHARSET_REGISTRY "KOI8"
CHARSET_ENCODING "R"
PIXEL_SIZE 34
POINT_SIZE 240
RESOLUTION_X 100
RESOLUTION_Y 100
COPYRIGHT "Copyright (C) 1990, 1991 EWT Consulting, Portions Copyright (C) 1994 Cronyx Ltd., Portions Copyright (C) 1996 by Andrey A. Chernov, Moscow, Russia."
ENDPROPERTIES
CHARS 224
STARTCHAR space
ENCODING 32
SWIDTH 228 0
DWIDTH 8 0
BBX 19 35 -1 -8
BITMAP
000000
000000
000000
000000
000000
000000
000000
000000
000000
000000
000000
000000
000000
000000
000000
000000
000000
000000
000000
000000
000000
000000
000000
000000
000000
000000
000000
000000
000000
000000
000000
000000
000000
000000
000000
ENDCHAR
STARTCHAR exclam
ENCODING 33
SWIDTH 257 0
DWIDTH 9 0
BBX 20 35 -1 -8
BITMAP
000000
000000
000000
000000
000100
000700
000700
000700
000E00
000E00
000E00
001C00
001C00
001C00
001000
001000
001000
002000
002000
000000
000000
000000
000000
008000
01C000
01C000
010000
000000
000000
000000
000000
000000
000000
000000
000000
ENDCHAR
STARTCHAR quotedbl
ENCODING 34
SWIDTH 342 0
DWIDTH 12 0
BBX 23 35 -1 -8
BITMAP
000000
000000
000000
000000
000210
000E70
000E70
000E70
000840
000840
000840
000000
000000
000000
000000
000000
000000
000000
000000
000000
000000
000000
000000
000000
000000
000000
000000
000000
000000
000000
000000
000000
000000
000000
000000
ENDCHAR
STARTCHAR numbersign
ENCODING 35
SWIDTH 457 0
DWIDTH 16 0
BBX 27 35 -1 -8
BITMAP
00000000
00000000
00000000
00000000
00000000
00018600
00018600
00018600
00030C00
00030C00
00030C00
007FFF00
007FFF00
000C3000
00186000
00186000
00186000
0030C000
0030C000
03FFF800
07FFF000
00C30000
00C30000
01860000
01860000
01860000
030C0000
00000000
00000000
00000000
00000000
00000000
00000000
00000000
00000000
ENDCHAR
STARTCHAR dollar
ENCODING 36
SWIDTH 457 0
DWIDTH 16 0
BBX 27 35 -1 -8
BITMAP
00000000
00000000
00003000
00003000
00003000
0001F900
00076F00
000E6300
001CC200
003CC200
003CC000
00798000
003D8000
003F8000
003F8000
001FC000
0007F000
0007F000
0007F000
0006F800
000CF000
020CF000
020CF000
0619C000
0719C000
079B8000
09FC0000
00300000
00300000
00600000
00000000
00000000
00000000
00000000
00000000
ENDCHAR
STARTCHAR percent
ENCODING 37
SWIDTH 800 0
DWIDTH 28 0
BBX 39 35 -1 -8
BITMAP
0000000000
0000000000
0000000000
0000000000
00007C0380
00039E1E00
000707FE00
000E07EC00
001C043000
0038043000
00380C6000
0070118000
0070318000
0038630000
007B8C0000
001E0C1E00
0000187380
000061C100
0000638180
0000C38080
00030E0100
00030E0300
00060E0200
00181C0C00
00180E1800
00300F7000
00C0078000
0000000000
0000000000
0000000000
0000000000
0000000000
0000000000
0000000000
0000000000
ENDCHAR
STARTCHAR ampersand
ENCODING 38
SWIDTH 714 0
DWIDTH 25 0
BBX 36 35 -1 -8
BITMAP
0000000000
0000000000
0000000000
0000000000
00000E0000
0000770000
0000630000
0000C18000
0001830000
0001830000
0001C60000
0001D80000
0001F00000
0001F00000
0007E1FC00
000E707000
001C706000
003070C000
0070398000
0070398000
00E03E0000
00E03E0000
00F01C0000
00E03C2000
00F87E6000
007FCFC000
003E0F0000
0000000000
0000000000
0000000000
0000000000
0000000000
0000000000
0000000000
0000000000
ENDCHAR
STARTCHAR quoteright
ENCODING 39
SWIDTH 257 0
DWIDTH 9 0
BBX 20 35 -1 -8
BITMAP
000000
000000
000000
000000
000100
000700
000700
000700
000400
000400
000400
000000
000000
000000
000000
000000
000000
000000
000000
000000
000000
000000
000000
000000
000000
000000
000000
000000
000000
000000
000000
000000
000000
000000
000000
ENDCHAR
STARTCHAR parenleft
ENCODING 40
SWIDTH 314 0
DWIDTH 11 0
BBX 22 35 -1 -8
BITMAP
000000
000000
000000
000000
000000
000030
000060
0000C0
000180
000300
000300
000C00
000C00
001C00
003000
003000
007000
00E000
00E000
00E000
01C000
01C000
01C000
018000
018000
01C000
018000
018000
00C000
018000
00C000
00C000
00C000
006000
000000
ENDCHAR
STARTCHAR parenright
ENCODING 41
SWIDTH 314 0
DWIDTH 11 0
BBX 22 35 -1 -8
BITMAP
000000
000000
000000
000000
000000
001800
000C00
000600
000C00
000600
000600
000600
000600
000700
000600
000600
000700
000E00
000E00
000E00
001C00
001C00
001C00
003000
003000
007000
00C000
00C000
018000
030000
060000
060000
180000
300000
000000
ENDCHAR
STARTCHAR asterisk
ENCODING 42
SWIDTH 457 0
DWIDTH 16 0
BBX 27 35 -1 -8
BITMAP
00000000
00000000
00002000
00007000
00007000
000EEE00
000E4E00
000F5E00
0001C000
0001C000
001EBC00
00393800
003BB800
00038000
00070000
00020000
00000000
00000000
00000000
00000000
00000000
00000000
00000000
00000000
00000000
00000000
00000000
00000000
00000000
00000000
00000000
00000000
00000000
00000000
00000000
ENDCHAR
STARTCHAR plus
ENCODING 43
SWIDTH 514 0
DWIDTH 18 0
BBX 29 35 -1 -8
BITMAP
00000000
00000000
00000000
00000000
00000000
00000000
00000000
00000000
00000000
00000000
00006000
0000C000
0000C000
0000C000
00018000
00018000
00018000
01FFFE00
01FFFE00
00030000
00060000
00060000
00060000
000C0000
000C0000
000C0000
00000000
00000000
00000000
00000000
00000000
00000000
00000000
00000000
00000000
ENDCHAR
STARTCHAR comma
ENCODING 44
SWIDTH 228 0
DWIDTH 8 0
BBX 19 35 -1 -8
BITMAP
000000
000000
000000
000000
000000
000000
000000
000000
000000
000000
000000
000000
000000
000000
000000
000000
000000
000000
000000
000000
000000
000000
000000
018000
03C000
03C000
038000
018000
010000
0C0000
000000
000000
000000
000000
000000
ENDCHAR
STARTCHAR minus
ENCODING 45
SWIDTH 285 0
DWIDTH 10 0
BBX 21 35 -1 -8
BITMAP
000000
000000
000000
000000
000000
000000
000000
000000
000000
000000
000000
000000
000000
000000
000000
000000
000000
01FE00
01FE00
000000
000000
000000
000000
000000
000000
000000
000000
000000
000000
000000
000000
000000
000000
000000
000000
ENDCHAR
STARTCHAR period
ENCODING 46
SWIDTH 228 0
DWIDTH 8 0
BBX 19 35 -1 -8
BITMAP
000000
000000
000000
000000
000000
000000
000000
000000
000000
000000
000000
000000
000000
000000
000000
000000
000000
000000
000000
000000
000000
000000
000000
018000
03C000
03C000
030000
000000
000000
000000
000000
000000
000000
000000
000000
ENDCHAR
STARTCHAR slash
ENCODING 47
SWIDTH 228 0
DWIDTH 8 0
BBX 19 35 -1 -8
BITMAP
000000
000000
000000
000000
000060
0000C0
0000C0
000180
000300
000300
000600
000C00
000C00
001800
003000
003000
003000
00C000
00C000
00C000
030000
030000
030000
060000
0C0000
0C0000
180000
180000
000000
000000
000000
000000
000000
000000
000000
ENDCHAR
STARTCHAR zero
ENCODING 48
SWIDTH 457 0
DWIDTH 16 0
BBX 27 35 -1 -8
BITMAP
00000000
00000000
00000000
00000000
00000000
0000F000
00039C00
00060600
001C0E00
00180600
00380700
00700E00
00700E00
00700E00
00E01C00
00E01C00
00E01C00
01C03800
01C03800
01C03800
03807000
03807000
01806000
0381C000
01818000
00E70000
00780000
00000000
00000000
00000000
00000000
00000000
00000000
00000000
00000000
ENDCHAR
STARTCHAR one
ENCODING 49
SWIDTH 457 0
DWIDTH 16 0
BBX 27 35 -1 -8
BITMAP
00000000
00000000
00000000
00000000
00000000
00002000
00006000
0000E000
0003C000
0006C000
0000C000
00018000
00018000
00018000
00030000
00030000
00030000
00060000
00060000
00060000
000C0000
000C0000
000C0000
00180000
00180000
003C0000
01FE0000
00000000
00000000
00000000
00000000
00000000
00000000
00000000
00000000
ENDCHAR
STARTCHAR two
ENCODING 50
SWIDTH 457 0
DWIDTH 16 0
BBX 27 35 -1 -8
BITMAP
00000000
00000000
00000000
00000000
00000000
0001F000
0007FC00
000C3E00
00303C00
00201E00
00001E00
00003C00
00003C00
00003C00
00007000
00007000
0000E000
00018000
00030000
00060000
00180000
00300000
00600000
01802000
03FFE000
07FFC000
0FFF8000
00000000
00000000
00000000
00000000
00000000
00000000
00000000
00000000
ENDCHAR
STARTCHAR three
ENCODING 51
SWIDTH 457 0
DWIDTH 16 0
BBX 27 35 -1 -8
BITMAP
00000000
00000000
00000000
00000000
00000000
0000F800
0003FE00
00061E00
00081E00
00000E00
00000E00
00001800
00003800
00003000
0001C000
000FF000
0001F800
0000F000
00007800
00003800
00007000
00007000
00007000
0000C000
0381C000
03C38000
01FC0000
00000000
00000000
00000000
00000000
00000000
00000000
00000000
00000000
ENDCHAR
STARTCHAR four
ENCODING 52
SWIDTH 457 0
DWIDTH 16 0
BBX 27 35 -1 -8
BITMAP
00000000
00000000
00000000
00000000
00000000
00000E00
00000E00
00001E00
00007C00
0000DC00
0000DC00
00033800
00063800
000C3800
00187000
00307000
00607000
0180E000
01FFF800
01FFF800
03FFF000
0001C000
0001C000
00038000
00038000
00038000
00070000
00000000
00000000
00000000
00000000
00000000
00000000
00000000
00000000
ENDCHAR
STARTCHAR five
ENCODING 53
SWIDTH 457 0
DWIDTH 16 0
BBX 27 35 -1 -8
BITMAP
00000000
00000000
00000000
00000000
00000000
0001FE00
0001FE00
0001FC00
00040000
00040000
00080000
001C0000
003F8000
003FE000
0003E000
0000F000
00007000
00007000
00007000
00003000
00006000
00006000
0180C000
07818000
03C70000
01FE0000
00F00000
00000000
00000000
00000000
00000000
00000000
00000000
00000000
00000000
ENDCHAR
STARTCHAR six
ENCODING 54
SWIDTH 457 0
DWIDTH 16 0
BBX 27 35 -1 -8
BITMAP
00000000
00000000
00000000
00000000
00000000
00003C00
0000E000
00018000
00060000
000E0000
000C0000
00380000
00300000
0071E000
00EFF000
00F87800
00F03C00
01C03800
01C03800
01C03800
03807000
03807000
01C0E000
0381C000
01C38000
00FF0000
00780000
00000000
00000000
00000000
00000000
00000000
00000000
00000000
00000000
ENDCHAR
STARTCHAR seven
ENCODING 55
SWIDTH 457 0
DWIDTH 16 0
BBX 27 35 -1 -8
BITMAP
00000000
00000000
00000000
00000000
00000000
000FFF80
000FFF00
001FFF00
00200600
00000C00
00000C00
00001800
00003000
00003000
00006000
0000C000
0000C000
00018000
00030000
00030000
00060000
000C0000
000C0000
00180000
00300000
00300000
00600000
00000000
00000000
00000000
00000000
00000000
00000000
00000000
00000000
ENDCHAR
STARTCHAR eight
ENCODING 56
SWIDTH 457 0
DWIDTH 16 0
BBX 27 35 -1 -8
BITMAP
00000000
00000000
00000000
00000000
00000000
0001F800
00070E00
00060600
001C0600
001C0600
001C0600
001C0C00
001E1800
000FB000
000FE000
001FF000
0031F800
00C0F000
00C07800
01803800
03007000
03003000
03003000
02004000
0300C000
01818000
00FC0000
00000000
00000000
00000000
00000000
00000000
00000000
00000000
00000000
ENDCHAR
STARTCHAR nine
ENCODING 57
SWIDTH 457 0
DWIDTH 16 0
BBX 27 35 -1 -8
BITMAP
00000000
00000000
00000000
00000000
00000000
0000F000
0003FC00
00070E00
001C0E00
00180600
00380700
00700E00
00700E00
00700E00
00E01C00
00F01C00
00783C00
007FB800
001E3800
00003000
0000E000
0000C000
0001C000
00030000
00060000
001C0000
01E00000
00000000
00000000
00000000
00000000
00000000
00000000
00000000
00000000
ENDCHAR
STARTCHAR colon
ENCODING 58
SWIDTH 228 0
DWIDTH 8 0
BBX 19 35 -1 -8
BITMAP
000000
000000
000000
000000
000000
000000
000000
000000
000000
000000
000000
000000
001800
003C00
007800
003000
000000
000000
000000
000000
000000
000000
000000
018000
03C000
03C000
030000
000000
000000
000000
000000
000000
000000
000000
000000
ENDCHAR
STARTCHAR semicolon
ENCODING 59
SWIDTH 228 0
DWIDTH 8 0
BBX 19 35 -1 -8
BITMAP
000000
000000
000000
000000
000000
000000
000000
000000
000000
000000
000000
000000
001800
003C00
007800
003000
000000
000000
000000
000000
000000
000000
000000
000000
018000
03C000
038000
018000
010000
0C0000
000000
000000
000000
000000
000000
ENDCHAR
STARTCHAR less
ENCODING 60
SWIDTH 514 0
DWIDTH 18 0
BBX 29 35 -1 -8
BITMAP
00000000
00000000
00000000
00000000
00000000
00000000
00000000
00000000
00000000
000000C0
000003C0
00001E00
00007C00
0001E000
000F0000
003C0000
00F00000
01E00000
00780000
001E0000
000F0000
0003C000
0000F000
00007800
00001800
00000000
00000000
00000000
00000000
00000000
00000000
00000000
00000000
00000000
00000000
ENDCHAR
STARTCHAR equal
ENCODING 61
SWIDTH 514 0
DWIDTH 18 0
BBX 29 35 -1 -8
BITMAP
00000000
00000000
00000000
00000000
00000000
00000000
00000000
00000000
00000000
00000000
00000000
00000000
007FFF80
007FFF80
00000000
00000000
00000000
00000000
01FFFE00
01FFFE00
00000000
00000000
00000000
00000000
00000000
00000000
00000000
00000000
00000000
00000000
00000000
00000000
00000000
00000000
00000000
ENDCHAR
STARTCHAR greater
ENCODING 62
SWIDTH 514 0
DWIDTH 18 0
BBX 29 35 -1 -8
BITMAP
00000000
00000000
00000000
00000000
00000000
00000000
00000000
00000000
00000000
00300000
003C0000
001E0000
00078000
0001E000
0000F000
00003C00
00000F00
00001E00
00007800
0001E000
000F0000
003C0000
00F00000
07800000
06000000
00000000
00000000
00000000
00000000
00000000
00000000
00000000
00000000
00000000
00000000
ENDCHAR
STARTCHAR question
ENCODING 63
SWIDTH 400 0
DWIDTH 14 0
BBX 25 35 -1 -8
BITMAP
00000000
00000000
00000000
00000000
0003F000
000C3800
00183800
00181C00
00383800
00383800
00103000
0000E000
0000C000
00018000
00030000
00020000
00060000
00080000
00080000
00080000
00000000
00000000
00000000
00600000
00F00000
00F00000
00C00000
00000000
00000000
00000000
00000000
00000000
00000000
00000000
00000000
ENDCHAR
STARTCHAR at
ENCODING 64
SWIDTH 828 0
DWIDTH 29 0
BBX 40 35 -1 -8
BITMAP
0000000000
0000000000
0000000000
0000000000
0000000000
00000FF800
0000380E00
0000E00380
0003800180
00070000C0
000E000060
001C0000C0
0038039860
00380E5860
00703070C0
00E0606060
00E0606060
01C180C0C0
01C18180C0
01C18180C0
0383030300
01C1878300
01C1CDCE00
0380E0F000
01C0000000
01C0000000
01C0000000
00E0000000
007000C000
0038060000
000FF80000
0000000000
0000000000
0000000000
0000000000
ENDCHAR
STARTCHAR A
ENCODING 65
SWIDTH 628 0
DWIDTH 22 0
BBX 33 35 -1 -8
BITMAP
0000000000
0000000000
0000000000
0000000000
0000000000
0000080000
0000080000
00000C0000
0000380000
00003C0000
00007C0000
0000F80000
0000FC0000
0001BC0000
00033C0000
00063C0000
00061E0000
000C3C0000
00183C0000
00181E0000
007FFC0000
00601E0000
00601E0000
01801E0000
01801E0000
03803F0000
1FC1FF8000
0000000000
0000000000
0000000000
0000000000
0000000000
0000000000
0000000000
0000000000
ENDCHAR
STARTCHAR B
ENCODING 66
SWIDTH 600 0
DWIDTH 21 0
BBX 32 35 -1 -8
BITMAP
00000000
00000000
00000000
00000000
00000000
001FFF80
0007C1E0
000380F0
000700E0
000700F0
000700F0
000E01E0
000E01C0
000E03C0
001C0F00
001FFE00
001C0F00
00380700
00380780
00380380
00700780
00700780
00700780
00E01E00
00E01E00
01F07C00
0FFFE000
00000000
00000000
00000000
00000000
00000000
00000000
00000000
00000000
ENDCHAR
STARTCHAR C
ENCODING 67
SWIDTH 600 0
DWIDTH 21 0
BBX 32 35 -1 -8
BITMAP
00000000
00000000
00000000
00000000
00000000
00003F10
0000F0F0
0003C030
000F0020
000E0000
001E0000
00380000
00780000
00780000
00F00000
00F00000
00F00000
01E00000
01E00000
01E00000
01E00000
01E00000
00F00080
01F00200
00FC0400
003FF800
001FC000
00000000
00000000
00000000
00000000
00000000
00000000
00000000
00000000
ENDCHAR
STARTCHAR D
ENCODING 68
SWIDTH 628 0
DWIDTH 22 0
BBX 33 35 -1 -8
BITMAP
0000000000
0000000000
0000000000
0000000000
0000000000
001FFF8000
0007C3E000
000380F000
000700F000
0007007000
0007007800
000E007000
000E007800
000E007800
001C00F000
001C00F000
001C00F000
003801E000
003801E000
003801E000
0070038000
0070078000
0070070000
00E01E0000
00E03C0000
01F0F80000
0FFFC00000
0000000000
0000000000
0000000000
0000000000
0000000000
0000000000
0000000000
0000000000
ENDCHAR
STARTCHAR E
ENCODING 69
SWIDTH 571 0
DWIDTH 20 0
BBX 31 35 -1 -8
BITMAP
00000000
00000000
00000000
00000000
00000000
001FFFE0
0007C060
00038020
00070040
00070000
00070000
000E0000
000E0200
000E0200
001C0C00
001FFC00
001C0C00
00380800
00380800
00380000
00700000
00700000
00700000
00E00200
00E00600
01F01C00
0FFFF800
00000000
00000000
00000000
00000000
00000000
00000000
00000000
00000000
ENDCHAR
STARTCHAR F
ENCODING 70
SWIDTH 514 0
DWIDTH 18 0
BBX 29 35 -1 -8
BITMAP
00000000
00000000
00000000
00000000
00000000
001FFFE0
0007C060
00038020
00070040
00070000
00070000
000E0000
000E0200
000E0200
001C0C00
001FFC00
001C0C00
00380800
00380800
00380000
00700000
00700000
00700000
00E00000
00E00000
01F00000
0FF80000
00000000
00000000
00000000
00000000
00000000
00000000
00000000
00000000
ENDCHAR
STARTCHAR G
ENCODING 71
SWIDTH 657 0
DWIDTH 23 0
BBX 34 35 -1 -8
BITMAP
0000000000
0000000000
0000000000
0000000000
0000000000
00001F8800
0000787800
0001E01800
0007801000
0007000000
000F000000
001C000000
003C000000
003C000000
0078000000
0078000000
007807FC00
00F003E000
00F001C000
00F001C000
00F0038000
00F0038000
0078038000
00F8070000
007E060000
001FFC0000
000FE00000
0000000000
0000000000
0000000000
0000000000
0000000000
0000000000
0000000000
0000000000
ENDCHAR
STARTCHAR H
ENCODING 72
SWIDTH 657 0
DWIDTH 23 0
BBX 34 35 -1 -8
BITMAP
0000000000
0000000000
0000000000
0000000000
0000000000
001FF1FF00
0007C07C00
0003803800
0007007000
0007007000
0007007000
000E00E000
000E00E000
000E00E000
001C01C000
001FFFC000
001C01C000
0038038000
0038038000
0038038000
0070070000
0070070000
0070070000
00E00E0000
00E00E0000
01F01F0000
0FF8FF8000
0000000000
0000000000
0000000000
0000000000
0000000000
0000000000
0000000000
0000000000
ENDCHAR
STARTCHAR I
ENCODING 73
SWIDTH 314 0
DWIDTH 11 0
BBX 22 35 -1 -8
BITMAP
000000
000000
000000
000000
000000
001FF0
0007C0
000380
000700
000700
000700
000E00
000E00
000E00
001C00
001C00
001C00
003800
003800
003800
007000
007000
007000
00E000
00E000
01F000
0FF800
000000
000000
000000
000000
000000
000000
000000
000000
ENDCHAR
STARTCHAR J
ENCODING 74
SWIDTH 371 0
DWIDTH 13 0
BBX 24 35 -1 -8
BITMAP
000000
000000
000000
000000
000000
0007FC
0001F0
0000E0
0001C0
0001C0
0001C0
000380
000380
000380
000700
000700
000700
000E00
000E00
000E00
001C00
001C00
021C00
0E3800
0E3800
073000
03C000
000000
000000
000000
000000
000000
000000
000000
000000
ENDCHAR
STARTCHAR K
ENCODING 75
SWIDTH 628 0
DWIDTH 22 0
BBX 33 35 -1 -8
BITMAP
0000000000
0000000000
0000000000
0000000000
0000000000
001FF1FC00
0007C07000
0003806000
0007018000
0007030000
0007060000
000E180000
000E300000
000E600000
001DE00000
001F700000
001E700000
0038700000
0038380000
0038380000
0070380000
00701C0000
00701C0000
00E01C0000
00E00E0000
01F01F0000
0FF8FF8000
0000000000
0000000000
0000000000
0000000000
0000000000
0000000000
0000000000
0000000000
ENDCHAR
STARTCHAR L
ENCODING 76
SWIDTH 571 0
DWIDTH 20 0
BBX 31 35 -1 -8
BITMAP
00000000
00000000
00000000
00000000
00000000
001FF000
0007C000
00038000
00070000
00070000
00070000
000E0000
000E0000
000E0000
001C0000
001C0000
001C0000
00380000
00380000
00380000
00700000
00700000
00700000
00E00200
00E00600
01F01C00
0FFFF800
00000000
00000000
00000000
00000000
00000000
00000000
00000000
00000000
ENDCHAR
STARTCHAR M
ENCODING 77
SWIDTH 800 0
DWIDTH 28 0
BBX 39 35 -1 -8
BITMAP
0000000000
0000000000
0000000000
0000000000
0000000000
001FC001F8
0007C001E0
0003C003C0
0007C00780
0005C00780
0005E00F80
0009C01F00
0009C02700
0009E02700
0011C04E00
0011E08E00
0010E08E00
0021C21C00
0021E21C00
0020E21C00
0041E83800
0040E83800
0040F03800
0080E07000
0080E07000
01C040F800
0FE087FC00
0000000000
0000000000
0000000000
0000000000
0000000000
0000000000
0000000000
0000000000
ENDCHAR
STARTCHAR N
ENCODING 78
SWIDTH 657 0
DWIDTH 23 0
BBX 34 35 -1 -8
BITMAP
0000000000
0000000000
0000000000
0000000000
0000000000
001F007F00
0007801C00
0003C00800
0007801000
0007C01000
0005E01000
0009E02000
0009E02000
0008F02000
0010F04000
0010784000
0010784000
0020788000
00203C8000
00201E8000
00403D0000
00401F0000
00400F0000
00800E0000
00800E0000
01C0060000
0FE0040000
0000000000
0000000000
0000000000
0000000000
0000000000
0000000000
0000000000
0000000000
ENDCHAR
STARTCHAR O
ENCODING 79
SWIDTH 600 0
DWIDTH 21 0
BBX 32 35 -1 -8
BITMAP
00000000
00000000
00000000
00000000
00000000
00007F00
0001E3C0
000380E0
000E00E0
000E00E0
001C0070
003800E0
007800F0
007800F0
00F001E0
00F001E0
00F001E0
01E003C0
01E003C0
01E003C0
01C00700
01C00700
00E00E00
01C01C00
00E03800
0078F000
003F8000
00000000
00000000
00000000
00000000
00000000
00000000
00000000
00000000
ENDCHAR
STARTCHAR P
ENCODING 80
SWIDTH 542 0
DWIDTH 19 0
BBX 30 35 -1 -8
BITMAP
00000000
00000000
00000000
00000000
00000000
001FFF80
0007C3E0
000381E0
000701E0
000701E0
000701E0
000E03C0
000E03C0
000E0780
001C1F00
001FFC00
001C0000
00380000
00380000
00380000
00700000
00700000
00700000
00E00000
00E00000
01F00000
0FF80000
00000000
00000000
00000000
00000000
00000000
00000000
00000000
00000000
ENDCHAR
STARTCHAR Q
ENCODING 81
SWIDTH 600 0
DWIDTH 21 0
BBX 32 35 -1 -8
BITMAP
00000000
00000000
00000000
00000000
00000000
00007F00
0001E3C0
000380E0
000E00E0
000E00E0
001C0070
003800E0
007800F0
007800F0
00F001E0
00F001E0
00F001E0
01E003C0
01E003C0
01E003C0
01C00700
01C00700
00E00E00
01C01C00
00E03800
0078F000
003F8000
000F0000
00070000
000F0000
00078000
0001F000
00000000
00000000
00000000
ENDCHAR
STARTCHAR R
ENCODING 82
SWIDTH 600 0
DWIDTH 21 0
BBX 32 35 -1 -8
BITMAP
00000000
00000000
00000000
00000000
00000000
001FFF80
0007C3E0
000381E0
000701E0
000701E0
000701E0
000E03C0
000E03C0
000E0780
001C1F00
001FFC00
001CF000
0038E000
00387000
00387800
00707000
00703800
00703C00
00E03800
00E01C00
01F01E00
0FF81F00
00000000
00000000
00000000
00000000
00000000
00000000
00000000
00000000
ENDCHAR
STARTCHAR S
ENCODING 83
SWIDTH 457 0
DWIDTH 16 0
BBX 27 35 -1 -8
BITMAP
00000000
00000000
00000000
00000000
00000000
0001F900
00070F00
000E0300
001C0200
003C0200
003C0000
00780000
003C0000
003F0000
003F8000
001FC000
0007F000
0007F000
0001F000
0000F800
0000F000
0200F000
0200F000
0601C000
0701C000
07838000
09FC0000
00000000
00000000
00000000
00000000
00000000
00000000
00000000
00000000
ENDCHAR
STARTCHAR T
ENCODING 84
SWIDTH 600 0
DWIDTH 21 0
BBX 32 35 -1 -8
BITMAP
00000000
00000000
00000000
00000000
00000000
001FFFFC
00181C0C
00101C04
00203808
00003800
00003800
00007000
00007000
00007000
0000E000
0000E000
0000E000
0001C000
0001C000
0001C000
00038000
00038000
00038000
00070000
00070000
000F8000
007FC000
00000000
00000000
00000000
00000000
00000000
00000000
00000000
00000000
ENDCHAR
STARTCHAR U
ENCODING 85
SWIDTH 657 0
DWIDTH 23 0
BBX 34 35 -1 -8
BITMAP
0000000000
0000000000
0000000000
0000000000
0000000000
001FF07F00
0007C01C00
0003800800
0007001000
0007001000
0007001000
000E002000
000E002000
000E002000
001C004000
001C004000
001C004000
0038008000
0038008000
0038008000
0070010000
0070010000
0078010000
0070040000
0078040000
003E180000
001FC00000
0000000000
0000000000
0000000000
0000000000
0000000000
0000000000
0000000000
0000000000
ENDCHAR
STARTCHAR V
ENCODING 86
SWIDTH 628 0
DWIDTH 22 0
BBX 33 35 -1 -8
BITMAP
0000000000
0000000000
0000000000
0000000000
0000000000
003FE03F00
000F800C00
0007000C00
000F001000
0007003000
0007802000
0007004000
000700C000
0007808000
0007030000
0007820000
0003860000
0007880000
0003880000
0003D80000
0007A00000
0003E00000
0003C00000
0003800000
0003000000
0001000000
0002000000
0000000000
0000000000
0000000000
0000000000
0000000000
0000000000
0000000000
0000000000
ENDCHAR
STARTCHAR W
ENCODING 87
SWIDTH 942 0
DWIDTH 33 0
BBX 44 35 -1 -8
BITMAP
000000000000
000000000000
000000000000
000000000000
000000000000
003FE3FE1FE0
000FC1F80780
000780F00300
000700E00400
000780F00C00
000380700800
000781F01000
000781F03000
000381702000
000782F04000
00038670C000
0003C4788000
000388710000
000398730000
0003D07A0000
0003A0740000
0003E07C0000
0001C0380000
000380700000
000100200000
000100200000
000200400000
000000000000
000000000000
000000000000
000000000000
000000000000
000000000000
000000000000
000000000000
ENDCHAR
STARTCHAR X
ENCODING 88
SWIDTH 657 0
DWIDTH 23 0
BBX 34 35 -1 -8
BITMAP
0000000000
0000000000
0000000000
0000000000
0000000000
001FE07E00
0007801800
0003C01000
0003C04000
0003C08000
0001E08000
0001E20000
0001E40000
0000F80000
0000F00000
0000F80000
0000780000
0001780000
00033C0000
00023C0000
00083C0000
00181E0000
00101E0000
00401E0000
00C00F0000
03800F8000
1FE07FC000
0000000000
0000000000
0000000000
0000000000
0000000000
0000000000
0000000000
0000000000
ENDCHAR
STARTCHAR Y
ENCODING 89
SWIDTH 628 0
DWIDTH 22 0
BBX 33 35 -1 -8
BITMAP
0000000000
0000000000
0000000000
0000000000
0000000000
003FE07F00
000F801C00
0003C00800
0003802000
0003C02000
0001E04000
0001C10000
0001E10000
0000F20000
0000F80000
0000F80000
0000700000
0000E00000
0000E00000
0000E00000
0001C00000
0001C00000
0001C00000
0003800000
0003800000
0007C00000
003FE00000
0000000000
0000000000
0000000000
0000000000
0000000000
0000000000
0000000000
0000000000
ENDCHAR
STARTCHAR Z
ENCODING 90
SWIDTH 600 0
DWIDTH 21 0
BBX 32 35 -1 -8
BITMAP
00000000
00000000
00000000
00000000
00000000
000FFFFC
000C0078
00080078
001001E0
000003C0
00000780
00000F00
00001E00
00003C00
0000F000
0000F000
0001E000
00078000
000F0000
000F0000
003C0000
00780000
00F00000
01E00100
03C00300
07800E00
1FFFFC00
00000000
00000000
00000000
00000000
00000000
00000000
00000000
00000000
ENDCHAR
STARTCHAR bracketleft
ENCODING 91
SWIDTH 314 0
DWIDTH 11 0
BBX 22 35 -1 -8
BITMAP
000000
000000
000000
000000
0007F0
000F00
000E00
000E00
001C00
001C00
001C00
003800
003800
003800
007000
007000
007000
00E000
00E000
00E000
01C000
01C000
01C000
038000
038000
038000
070000
070000
070000
0E0000
0E0000
0F0000
1FC000
000000
000000
ENDCHAR
STARTCHAR backslash
ENCODING 92
SWIDTH 228 0
DWIDTH 8 0
BBX 19 35 -1 -8
BITMAP
000000
000000
000000
000000
001800
003000
003000
001800
003000
003000
001800
003000
003000
001800
003000
003000
003000
003000
003000
003000
003000
003000
003000
006000
003000
003000
006000
000000
000000
000000
000000
000000
000000
000000
000000
ENDCHAR
STARTCHAR bracketright
ENCODING 93
SWIDTH 314 0
DWIDTH 11 0
BBX 22 35 -1 -8
BITMAP
000000
000000
000000
000000
0007F0
0001E0
0000E0
0000E0
0001C0
0001C0
0001C0
000380
000380
000380
000700
000700
000700
000E00
000E00
000E00
001C00
001C00
001C00
003800
003800
003800
007000
007000
007000
00E000
00E000
01E000
1FC000
000000
000000
ENDCHAR
STARTCHAR asciicircum
ENCODING 94
SWIDTH 457 0
DWIDTH 16 0
BBX 27 35 -1 -8
BITMAP
00000000
00000000
00000000
00000000
00003000
0000F000
0001F800
00039C00
000E1C00
001C0E00
00380700
00000000
00000000
00000000
00000000
00000000
00000000
00000000
00000000
00000000
00000000
00000000
00000000
00000000
00000000
00000000
00000000
00000000
00000000
00000000
00000000
00000000
00000000
00000000
00000000
ENDCHAR
STARTCHAR underscore
ENCODING 95
SWIDTH 457 0
DWIDTH 16 0
BBX 27 35 -1 -8
BITMAP
00000000
00000000
00000000
00000000
00000000
00000000
00000000
00000000
00000000
00000000
00000000
00000000
00000000
00000000
00000000
00000000
00000000
00000000
00000000
00000000
00000000
00000000
00000000
00000000
00000000
00000000
00000000
00000000
1FFFE000
3FFFC000
00000000
00000000
00000000
00000000
00000000
ENDCHAR
STARTCHAR quoteleft
ENCODING 96
SWIDTH 314 0
DWIDTH 11 0
BBX 22 35 -1 -8
BITMAP
000000
000000
000000
000000
000180
000380
0000C0
000020
000000
000000
000000
000000
000000
000000
000000
000000
000000
000000
000000
000000
000000
000000
000000
000000
000000
000000
000000
000000
000000
000000
000000
000000
000000
000000
000000
ENDCHAR
STARTCHAR a
ENCODING 97
SWIDTH 400 0
DWIDTH 14 0
BBX 25 35 -1 -8
BITMAP
00000000
00000000
00000000
00000000
00000000
00000000
00000000
00000000
00000000
00000000
00000000
00000000
000F8000
0038C000
00E1C000
00E1C000
0041C000
00078000
001F8000
00738000
01C70000
03870000
03870000
070E0000
079E0000
03EF8000
038E0000
00000000
00000000
00000000
00000000
00000000
00000000
00000000
00000000
ENDCHAR
STARTCHAR b
ENCODING 98
SWIDTH 485 0
DWIDTH 17 0
BBX 28 35 -1 -8
BITMAP
00000000
00000000
00000000
00000000
00018000
00070000
001F0000
00070000
000E0000
000E0000
000E0000
001C0000
001CF000
001F7C00
00383C00
00381C00
00381E00
00701C00
00701C00
00701C00
00E03800
00E03800
00E07000
01C0E000
01C1C000
00E78000
007C0000
00000000
00000000
00000000
00000000
00000000
00000000
00000000
00000000
ENDCHAR
STARTCHAR c
ENCODING 99
SWIDTH 400 0
DWIDTH 14 0
BBX 25 35 -1 -8
BITMAP
00000000
00000000
00000000
00000000
00000000
00000000
00000000
00000000
00000000
00000000
00000000
00000000
00078000
001CE000
0070E000
0060E000
00E04000
01C00000
01C00000
01C00000
03800000
03800000
03800000
07808000
03C10000
01FE0000
01F80000
00000000
00000000
00000000
00000000
00000000
00000000
00000000
00000000
ENDCHAR
STARTCHAR d
ENCODING 100
SWIDTH 485 0
DWIDTH 17 0
BBX 28 35 -1 -8
BITMAP
00000000
00000000
00000000
00000000
000000C0
00000380
00000F80
00000380
00000700
00000700
00000700
00000E00
00078E00
001C6E00
00703C00
00601C00
00E01C00
01C03800
01C03800
01C03800
03807000
03807000
03C07000
0380E000
03E1F000
01FEC000
00F10000
00000000
00000000
00000000
00000000
00000000
00000000
00000000
00000000
ENDCHAR
STARTCHAR e
ENCODING 101
SWIDTH 400 0
DWIDTH 14 0
BBX 25 35 -1 -8
BITMAP
00000000
00000000
00000000
00000000
00000000
00000000
00000000
00000000
00000000
00000000
00000000
00000000
00070000
001FC000
0071C000
0060C000
00E0E000
01C1C000
01FFC000
01C00000
03800000
03800000
03C00000
03C18000
03FF0000
01FE0000
00F00000
00000000
00000000
00000000
00000000
00000000
00000000
00000000
00000000
ENDCHAR
STARTCHAR f
ENCODING 102
SWIDTH 342 0
DWIDTH 12 0
BBX 23 35 -1 -8
BITMAP
000000
000000
000000
000000
0000F8
000338
000718
000700
000E00
000E00
000E00
001C00
007F00
001C00
003800
003800
003800
007000
007000
007000
00E000
00E000
00E000
01C000
01C000
03E000
0FE000
000000
000000
000000
000000
000000
000000
000000
000000
ENDCHAR
STARTCHAR g
ENCODING 103
SWIDTH 428 0
DWIDTH 15 0
BBX 26 35 -1 -8
BITMAP
00000000
00000000
00000000
00000000
00000000
00000000
00000000
00000000
00000000
00000000
00000000
00000000
0007E000
001CFC00
0060E000
00607000
00E07000
01C0E000
01C0C000
00E0C000
01E70000
00FC0000
00400000
01000000
03000000
03FE0000
07FF0000
03FF8000
0101C000
0C018000
1C018000
1E030000
3FFC0000
1FF80000
07F00000
ENDCHAR
STARTCHAR h
ENCODING 104
SWIDTH 485 0
DWIDTH 17 0
BBX 28 35 -1 -8
BITMAP
00000000
00000000
00000000
00000000
00018000
00070000
001F0000
00070000
000E0000
000E0000
000E0000
001C0000
001CF000
001DF800
003C7800
00383800
00383800
00707000
00707000
00707000
00E0E000
00E0E000
00E0E000
01C1C000
01C1C000
03E3E000
0FEFE000
00000000
00000000
00000000
00000000
00000000
00000000
00000000
00000000
ENDCHAR
STARTCHAR i
ENCODING 105
SWIDTH 257 0
DWIDTH 9 0
BBX 20 35 -1 -8
BITMAP
000000
000000
000000
000000
000100
000700
000700
000200
000000
000000
000000
000000
000400
001C00
00F800
003800
003800
007000
007000
007000
00E000
00E000
00E000
01C000
01C000
03E000
0FE000
000000
000000
000000
000000
000000
000000
000000
000000
ENDCHAR
STARTCHAR j
ENCODING 106
SWIDTH 257 0
DWIDTH 9 0
BBX 20 35 -1 -8
BITMAP
000000
000000
000000
000000
000100
000700
000700
000200
000000
000000
000000
000000
000400
001C00
00F800
003800
003800
007000
007000
007000
00E000
00E000
00E000
01C000
01C000
01C000
038000
038000
038000
070000
070000
070000
0C0000
6C0000
780000
ENDCHAR
STARTCHAR k
ENCODING 107
SWIDTH 457 0
DWIDTH 16 0
BBX 27 35 -1 -8
BITMAP
00000000
00000000
00000000
00000000
00018000
00070000
001F0000
00070000
000E0000
000E0000
000E0000
001C0000
001C7800
001C2000
00388000
00390000
003A0000
00780000
007C0000
007E0000
00EE0000
00E70000
00E38000
01C38000
01C1C000
03E0E000
0FE7E000
00000000
00000000
00000000
00000000
00000000
00000000
00000000
00000000
ENDCHAR
STARTCHAR l
ENCODING 108
SWIDTH 257 0
DWIDTH 9 0
BBX 20 35 -1 -8
BITMAP
000000
000000
000000
000000
000180
000700
001F00
000700
000E00
000E00
000E00
001C00
001C00
001C00
003800
003800
003800
007000
007000
007000
00E000
00E000
00E000
01C000
01C000
03E000
0FE000
000000
000000
000000
000000
000000
000000
000000
000000
ENDCHAR
STARTCHAR m
ENCODING 109
SWIDTH 685 0
DWIDTH 24 0
BBX 35 35 -1 -8
BITMAP
0000000000
0000000000
0000000000
0000000000
0000000000
0000000000
0000000000
0000000000
0000000000
0000000000
0000000000
0000000000
000CF0F000
001DF9F800
00FC7C7800
0038383800
0038383800
0070707000
0070707000
0070707000
00E0E0E000
00E0E0E000
00E0E0E000
01C1C1C000
01C1C1C000
03E3E3E000
0FEFEFE000
0000000000
0000000000
0000000000
0000000000
0000000000
0000000000
0000000000
0000000000
ENDCHAR
STARTCHAR n
ENCODING 110
SWIDTH 457 0
DWIDTH 16 0
BBX 27 35 -1 -8
BITMAP
00000000
00000000
00000000
00000000
00000000
00000000
00000000
00000000
00000000
00000000
00000000
00000000
000CF000
001DF800
00FC7800
00383800
00383800
00707000
00707000
00707000
00E0E000
00E0E000
00E0E000
01C1C000
01C1C000
03E3E000
0FEFE000
00000000
00000000
00000000
00000000
00000000
00000000
00000000
00000000
ENDCHAR
STARTCHAR o
ENCODING 111
SWIDTH 457 0
DWIDTH 16 0
BBX 27 35 -1 -8
BITMAP
00000000
00000000
00000000
00000000
00000000
00000000
00000000
00000000
00000000
00000000
00000000
00000000
0003E000
000E7800
00307800
00703800
00603C00
01C03800
01C03800
01C03800
03807000
03807000
03806000
0381C000
03C18000
01E70000
00F80000
00000000
00000000
00000000
00000000
00000000
00000000
00000000
00000000
ENDCHAR
STARTCHAR p
ENCODING 112
SWIDTH 485 0
DWIDTH 17 0
BBX 28 35 -1 -8
BITMAP
00000000
00000000
00000000
00000000
00000000
00000000
00000000
00000000
00000000
00000000
00000000
00000000
000CF000
001F7C00
00F83C00
00381C00
00381E00
00701C00
00701C00
00701C00
00E03800
00E03800
00E07000
01C0E000
01C1C000
01E78000
03FC0000
03800000
03800000
07000000
07000000
07000000
0E000000
1F000000
3F800000
ENDCHAR
STARTCHAR q
ENCODING 113
SWIDTH 457 0
DWIDTH 16 0
BBX 27 35 -1 -8
BITMAP
00000000
00000000
00000000
00000000
00000000
00000000
00000000
00000000
00000000
00000000
00000000
00000000
00078400
001C7C00
00703800
00603800
00E03800
01C07000
01C07000
01C07000
0380E000
0380E000
03C0E000
0381C000
03E1C000
01FFC000
00F38000
00038000
00038000
00070000
00070000
00070000
000E0000
001F0000
003F8000
ENDCHAR
STARTCHAR r
ENCODING 114
SWIDTH 371 0
DWIDTH 13 0
BBX 24 35 -1 -8
BITMAP
000000
000000
000000
000000
000000
000000
000000
000000
000000
000000
000000
000000
000CE0
001DF0
00FCE0
003800
003800
007000
007000
007000
00E000
00E000
00E000
01C000
01C000
03E000
0FE000
000000
000000
000000
000000
000000
000000
000000
000000
ENDCHAR
STARTCHAR s
ENCODING 115
SWIDTH 371 0
DWIDTH 13 0
BBX 24 35 -1 -8
BITMAP
000000
000000
000000
000000
000000
000000
000000
000000
000000
000000
000000
000000
000FA0
001C60
007040
007040
007800
007000
007C00
001F00
000F00
000780
010380
020700
030700
03CE00
04F800
000000
000000
000000
000000
000000
000000
000000
000000
ENDCHAR
STARTCHAR t
ENCODING 116
SWIDTH 257 0
DWIDTH 9 0
BBX 20 35 -1 -8
BITMAP
000000
000000
000000
000000
000000
000000
000000
000100
000200
000600
000E00
001C00
007E00
001C00
003800
003800
003800
007000
007000
007000
00E000
00E000
00E000
01C000
01C800
00F000
00C000
000000
000000
000000
000000
000000
000000
000000
000000
ENDCHAR
STARTCHAR u
ENCODING 117
SWIDTH 457 0
DWIDTH 16 0
BBX 27 35 -1 -8
BITMAP
00000000
00000000
00000000
00000000
00000000
00000000
00000000
00000000
00000000
00000000
00000000
00000000
00783C00
00381C00
00703800
00703800
00703800
00E07000
00E07000
00E07000
01C0E000
01C0E000
01C0E000
0381C000
01C3F000
00FDC000
00F30000
00000000
00000000
00000000
00000000
00000000
00000000
00000000
00000000
ENDCHAR
STARTCHAR v
ENCODING 118
SWIDTH 514 0
DWIDTH 18 0
BBX 29 35 -1 -8
BITMAP
00000000
00000000
00000000
00000000
00000000
00000000
00000000
00000000
00000000
00000000
00000000
00000000
007F1F80
001C0600
00380800
001C0800
001C1000
001C2000
001C2000
000E4000
001C8000
000E8000
000F0000
000E0000
000C0000
00040000
00080000
00000000
00000000
00000000
00000000
00000000
00000000
00000000
00000000
ENDCHAR
STARTCHAR w
ENCODING 119
SWIDTH 742 0
DWIDTH 26 0
BBX 37 35 -1 -8
BITMAP
0000000000
0000000000
0000000000
0000000000
0000000000
0000000000
0000000000
0000000000
0000000000
0000000000
0000000000
0000000000
007F3F8F80
001C0E0200
00381C0400
001C1E0800
001C1E0800
00383E1000
001C4E2000
001C4F2000
001D0E8000
001D0E8000
001F0F8000
001C0E0000
001C0E0000
0008040000
0010080000
0000000000
0000000000
0000000000
0000000000
0000000000
0000000000
0000000000
0000000000
ENDCHAR
STARTCHAR x
ENCODING 120
SWIDTH 457 0
DWIDTH 16 0
BBX 27 35 -1 -8
BITMAP
00000000
00000000
00000000
00000000
00000000
00000000
00000000
00000000
00000000
00000000
00000000
00000000
007E3E00
001C1800
001C6000
001C4000
000EC000
000F0000
000F0000
00070000
001F0000
00170000
00338000
00438000
00C38000
0181C000
0FCFE000
00000000
00000000
00000000
00000000
00000000
00000000
00000000
00000000
ENDCHAR
STARTCHAR y
ENCODING 121
SWIDTH 514 0
DWIDTH 18 0
BBX 29 35 -1 -8
BITMAP
00000000
00000000
00000000
00000000
00000000
00000000
00000000
00000000
00000000
00000000
00000000
00000000
007F1F80
001C0600
00380800
001C0800
001C1000
001C2000
001C2000
000E4000
001C8000
000E8000
000F0000
000E0000
000C0000
00040000
00080000
00100000
00100000
00400000
00400000
00800000
1B000000
3E000000
1C000000
ENDCHAR
STARTCHAR z
ENCODING 122
SWIDTH 428 0
DWIDTH 15 0
BBX 26 35 -1 -8
BITMAP
00000000
00000000
00000000
00000000
00000000
00000000
00000000
00000000
00000000
00000000
00000000
00000000
003FFC00
00303800
0040E000
0040E000
0001C000
00070000
00070000
000E0000
00380000
00380000
00700000
01C04000
01C04000
0380C000
0FFF8000
00000000
00000000
00000000
00000000
00000000
00000000
00000000
00000000
ENDCHAR
STARTCHAR braceleft
ENCODING 123
SWIDTH 371 0
DWIDTH 13 0
BBX 24 35 -1 -8
BITMAP
000000
000000
000000
00000E
000038
000060
0000E0
0000E0
0001C0
0001C0
0001C0
000380
000380
000380
000E00
000E00
001C00
00E000
003800
001C00
003800
001C00
001C00
003800
003800
003800
007000
007000
007000
00E000
006000
007000
003800
000000
000000
ENDCHAR
STARTCHAR bar
ENCODING 124
SWIDTH 257 0
DWIDTH 9 0
BBX 20 35 -1 -8
BITMAP
000000
000000
000000
000000
000380
000700
000700
000700
000E00
000E00
000E00
001C00
001C00
001C00
003800
003800
003800
007000
007000
007000
00E000
00E000
00E000
01C000
01C000
01C000
038000
038000
000000
000000
000000
000000
000000
000000
000000
ENDCHAR
STARTCHAR braceright
ENCODING 125
SWIDTH 371 0
DWIDTH 13 0
BBX 24 35 -1 -8
BITMAP
000000
000000
000000
000700
0001C0
000180
0001C0
0001C0
000380
000380
000380
000700
000700
000700
000700
000700
000380
0001C0
000700
000E00
001C00
003800
003800
007000
007000
007000
00E000
00E000
00E000
01C000
018000
038000
1C0000
000000
000000
ENDCHAR
STARTCHAR asciitilde
ENCODING 126
SWIDTH 457 0
DWIDTH 16 0
BBX 27 35 -1 -8
BITMAP
00000000
00000000
00000000
00000000
0003C080
000FE300
0018FE00
00103C00
00000000
00000000
00000000
00000000
00000000
00000000
00000000
00000000
00000000
00000000
00000000
00000000
00000000
00000000
00000000
00000000
00000000
00000000
00000000
00000000
00000000
00000000
00000000
00000000
00000000
00000000
00000000
ENDCHAR
STARTCHAR C177
ENCODING -1
SWIDTH 314 0
DWIDTH 11 0
BBX 22 35 -1 -8
BITMAP
000000
000000
000000
000000
0003E0
0007C0
0007C0
0007C0
000F80
000F80
000F80
001F00
001F00
001F00
003E00
003E00
003E00
007C00
007C00
007C00
00F800
00F800
00F800
01F000
01F000
01F000
03E000
000000
000000
000000
000000
000000
000000
000000
000000
ENDCHAR
STARTCHAR C200
ENCODING -1
SWIDTH 314 0
DWIDTH 11 0
BBX 22 35 -1 -8
BITMAP
000000
000000
000000
000000
0003E0
0007C0
0007C0
0007C0
000F80
000F80
000F80
001F00
001F00
001F00
003E00
003E00
003E00
007C00
007C00
007C00
00F800
00F800
00F800
01F000
01F000
01F000
03E000
000000
000000
000000
000000
000000
000000
000000
000000
ENDCHAR
STARTCHAR C201
ENCODING -1
SWIDTH 314 0
DWIDTH 11 0
BBX 22 35 -1 -8
BITMAP
000000
000000
000000
000000
0003E0
0007C0
0007C0
0007C0
000F80
000F80
000F80
001F00
001F00
001F00
003E00
003E00
003E00
007C00
007C00
007C00
00F800
00F800
00F800
01F000
01F000
01F000
03E000
000000
000000
000000
000000
000000
000000
000000
000000
ENDCHAR
STARTCHAR C202
ENCODING -1
SWIDTH 314 0
DWIDTH 11 0
BBX 22 35 -1 -8
BITMAP
000000
000000
000000
000000
0003E0
0007C0
0007C0
0007C0
000F80
000F80
000F80
001F00
001F00
001F00
003E00
003E00
003E00
007C00
007C00
007C00
00F800
00F800
00F800
01F000
01F000
01F000
03E000
000000
000000
000000
000000
000000
000000
000000
000000
ENDCHAR
STARTCHAR C203
ENCODING -1
SWIDTH 314 0
DWIDTH 11 0
BBX 22 35 -1 -8
BITMAP
000000
000000
000000
000000
0003E0
0007C0
0007C0
0007C0
000F80
000F80
000F80
001F00
001F00
001F00
003E00
003E00
003E00
007C00
007C00
007C00
00F800
00F800
00F800
01F000
01F000
01F000
03E000
000000
000000
000000
000000
000000
000000
000000
000000
ENDCHAR
STARTCHAR C204
ENCODING -1
SWIDTH 314 0
DWIDTH 11 0
BBX 22 35 -1 -8
BITMAP
000000
000000
000000
000000
0003E0
0007C0
0007C0
0007C0
000F80
000F80
000F80
001F00
001F00
001F00
003E00
003E00
003E00
007C00
007C00
007C00
00F800
00F800
00F800
01F000
01F000
01F000
03E000
000000
000000
000000
000000
000000
000000
000000
000000
ENDCHAR
STARTCHAR C205
ENCODING -1
SWIDTH 314 0
DWIDTH 11 0
BBX 22 35 -1 -8
BITMAP
000000
000000
000000
000000
0003E0
0007C0
0007C0
0007C0
000F80
000F80
000F80
001F00
001F00
001F00
003E00
003E00
003E00
007C00
007C00
007C00
00F800
00F800
00F800
01F000
01F000
01F000
03E000
000000
000000
000000
000000
000000
000000
000000
000000
ENDCHAR
STARTCHAR C206
ENCODING -1
SWIDTH 314 0
DWIDTH 11 0
BBX 22 35 -1 -8
BITMAP
000000
000000
000000
000000
0003E0
0007C0
0007C0
0007C0
000F80
000F80
000F80
001F00
001F00
001F00
003E00
003E00
003E00
007C00
007C00
007C00
00F800
00F800
00F800
01F000
01F000
01F000
03E000
000000
000000
000000
000000
000000
000000
000000
000000
ENDCHAR
STARTCHAR C207
ENCODING -1
SWIDTH 314 0
DWIDTH 11 0
BBX 22 35 -1 -8
BITMAP
000000
000000
000000
000000
0003E0
0007C0
0007C0
0007C0
000F80
000F80
000F80
001F00
001F00
001F00
003E00
003E00
003E00
007C00
007C00
007C00
00F800
00F800
00F800
01F000
01F000
01F000
03E000
000000
000000
000000
000000
000000
000000
000000
000000
ENDCHAR
STARTCHAR C210
ENCODING -1
SWIDTH 314 0
DWIDTH 11 0
BBX 22 35 -1 -8
BITMAP
000000
000000
000000
000000
0003E0
0007C0
0007C0
0007C0
000F80
000F80
000F80
001F00
001F00
001F00
003E00
003E00
003E00
007C00
007C00
007C00
00F800
00F800
00F800
01F000
01F000
01F000
03E000
000000
000000
000000
000000
000000
000000
000000
000000
ENDCHAR
STARTCHAR C211
ENCODING -1
SWIDTH 314 0
DWIDTH 11 0
BBX 22 35 -1 -8
BITMAP
000000
000000
000000
000000
0003E0
0007C0
0007C0
0007C0
000F80
000F80
000F80
001F00
001F00
001F00
003E00
003E00
003E00
007C00
007C00
007C00
00F800
00F800
00F800
01F000
01F000
01F000
03E000
000000
000000
000000
000000
000000
000000
000000
000000
ENDCHAR
STARTCHAR C212
ENCODING -1
SWIDTH 314 0
DWIDTH 11 0
BBX 22 35 -1 -8
BITMAP
000000
000000
000000
000000
0003E0
0007C0
0007C0
0007C0
000F80
000F80
000F80
001F00
001F00
001F00
003E00
003E00
003E00
007C00
007C00
007C00
00F800
00F800
00F800
01F000
01F000
01F000
03E000
000000
000000
000000
000000
000000
000000
000000
000000
ENDCHAR
STARTCHAR C213
ENCODING -1
SWIDTH 314 0
DWIDTH 11 0
BBX 22 35 -1 -8
BITMAP
000000
000000
000000
000000
0003E0
0007C0
0007C0
0007C0
000F80
000F80
000F80
001F00
001F00
001F00
003E00
003E00
003E00
007C00
007C00
007C00
00F800
00F800
00F800
01F000
01F000
01F000
03E000
000000
000000
000000
000000
000000
000000
000000
000000
ENDCHAR
STARTCHAR C214
ENCODING -1
SWIDTH 314 0
DWIDTH 11 0
BBX 22 35 -1 -8
BITMAP
000000
000000
000000
000000
0003E0
0007C0
0007C0
0007C0
000F80
000F80
000F80
001F00
001F00
001F00
003E00
003E00
003E00
007C00
007C00
007C00
00F800
00F800
00F800
01F000
01F000
01F000
03E000
000000
000000
000000
000000
000000
000000
000000
000000
ENDCHAR
STARTCHAR C215
ENCODING -1
SWIDTH 314 0
DWIDTH 11 0
BBX 22 35 -1 -8
BITMAP
000000
000000
000000
000000
0003E0
0007C0
0007C0
0007C0
000F80
000F80
000F80
001F00
001F00
001F00
003E00
003E00
003E00
007C00
007C00
007C00
00F800
00F800
00F800
01F000
01F000
01F000
03E000
000000
000000
000000
000000
000000
000000
000000
000000
ENDCHAR
STARTCHAR C216
ENCODING -1
SWIDTH 314 0
DWIDTH 11 0
BBX 22 35 -1 -8
BITMAP
000000
000000
000000
000000
0003E0
0007C0
0007C0
0007C0
000F80
000F80
000F80
001F00
001F00
001F00
003E00
003E00
003E00
007C00
007C00
007C00
00F800
00F800
00F800
01F000
01F000
01F000
03E000
000000
000000
000000
000000
000000
000000
000000
000000
ENDCHAR
STARTCHAR C217
ENCODING -1
SWIDTH 314 0
DWIDTH 11 0
BBX 22 35 -1 -8
BITMAP
000000
000000
000000
000000
0003E0
0007C0
0007C0
0007C0
000F80
000F80
000F80
001F00
001F00
001F00
003E00
003E00
003E00
007C00
007C00
007C00
00F800
00F800
00F800
01F000
01F000
01F000
03E000
000000
000000
000000
000000
000000
000000
000000
000000
ENDCHAR
STARTCHAR C220
ENCODING -1
SWIDTH 314 0
DWIDTH 11 0
BBX 22 35 -1 -8
BITMAP
000000
000000
000000
000000
0003E0
0007C0
0007C0
0007C0
000F80
000F80
000F80
001F00
001F00
001F00
003E00
003E00
003E00
007C00
007C00
007C00
00F800
00F800
00F800
01F000
01F000
01F000
03E000
000000
000000
000000
000000
000000
000000
000000
000000
ENDCHAR
STARTCHAR C221
ENCODING -1
SWIDTH 228 0
DWIDTH 8 0
BBX 19 35 -1 -8
BITMAP
000000
000000
000000
000000
000180
000400
000C00
000E00
001E00
000C00
000000
000000
000000
000000
000000
000000
000000
000000
000000
000000
000000
000000
000000
000000
000000
000000
000000
000000
000000
000000
000000
000000
000000
000000
000000
ENDCHAR
STARTCHAR C222
ENCODING -1
SWIDTH 228 0
DWIDTH 8 0
BBX 19 35 -1 -8
BITMAP
000000
000000
000000
000000
000300
000F00
000700
000300
000400
001800
000000
000000
000000
000000
000000
000000
000000
000000
000000
000000
000000
000000
000000
000000
000000
000000
000000
000000
000000
000000
000000
000000
000000
000000
000000
ENDCHAR
STARTCHAR C223
ENCODING -1
SWIDTH 314 0
DWIDTH 11 0
BBX 22 35 -1 -8
BITMAP
000000
000000
000000
000000
0003E0
0007C0
0007C0
0007C0
000F80
000F80
000F80
001F00
001F00
001F00
003E00
003E00
003E00
007C00
007C00
007C00
00F800
00F800
00F800
01F000
01F000
01F000
03E000
000000
000000
000000
000000
000000
000000
000000
000000
ENDCHAR
STARTCHAR C224
ENCODING -1
SWIDTH 314 0
DWIDTH 11 0
BBX 22 35 -1 -8
BITMAP
000000
000000
000000
000000
0003E0
0007C0
0007C0
0007C0
000F80
000F80
000F80
001F00
001F00
001F00
003E00
003E00
003E00
007C00
007C00
007C00
00F800
00F800
00F800
01F000
01F000
01F000
03E000
000000
000000
000000
000000
000000
000000
000000
000000
ENDCHAR
STARTCHAR C225
ENCODING -1
SWIDTH 314 0
DWIDTH 11 0
BBX 22 35 -1 -8
BITMAP
000000
000000
000000
000000
0003E0
0007C0
0007C0
0007C0
000F80
000F80
000F80
001F00
001F00
001F00
003E00
003E00
003E00
007C00
007C00
007C00
00F800
00F800
00F800
01F000
01F000
01F000
03E000
000000
000000
000000
000000
000000
000000
000000
000000
ENDCHAR
STARTCHAR C226
ENCODING -1
SWIDTH 314 0
DWIDTH 11 0
BBX 22 35 -1 -8
BITMAP
000000
000000
000000
000000
0003E0
0007C0
0007C0
0007C0
000F80
000F80
000F80
001F00
001F00
001F00
003E00
003E00
003E00
007C00
007C00
007C00
00F800
00F800
00F800
01F000
01F000
01F000
03E000
000000
000000
000000
000000
000000
000000
000000
000000
ENDCHAR
STARTCHAR C227
ENCODING -1
SWIDTH 314 0
DWIDTH 11 0
BBX 22 35 -1 -8
BITMAP
000000
000000
000000
000000
0003E0
0007C0
0007C0
0007C0
000F80
000F80
000F80
001F00
001F00
001F00
003E00
003E00
003E00
007C00
007C00
007C00
00F800
00F800
00F800
01F000
01F000
01F000
03E000
000000
000000
000000
000000
000000
000000
000000
000000
ENDCHAR
STARTCHAR C230
ENCODING -1
SWIDTH 314 0
DWIDTH 11 0
BBX 22 35 -1 -8
BITMAP
000000
000000
000000
000000
0003E0
0007C0
0007C0
0007C0
000F80
000F80
000F80
001F00
001F00
001F00
003E00
003E00
003E00
007C00
007C00
007C00
00F800
00F800
00F800
01F000
01F000
01F000
03E000
000000
000000
000000
000000
000000
000000
000000
000000
ENDCHAR
STARTCHAR C231
ENCODING -1
SWIDTH 314 0
DWIDTH 11 0
BBX 22 35 -1 -8
BITMAP
000000
000000
000000
000000
0003E0
0007C0
0007C0
0007C0
000F80
000F80
000F80
001F00
001F00
001F00
003E00
003E00
003E00
007C00
007C00
007C00
00F800
00F800
00F800
01F000
01F000
01F000
03E000
000000
000000
000000
000000
000000
000000
000000
000000
ENDCHAR
STARTCHAR C232
ENCODING -1
SWIDTH 314 0
DWIDTH 11 0
BBX 22 35 -1 -8
BITMAP
000000
000000
000000
000000
0003E0
0007C0
0007C0
0007C0
000F80
000F80
000F80
001F00
001F00
001F00
003E00
003E00
003E00
007C00
007C00
007C00
00F800
00F800
00F800
01F000
01F000
01F000
03E000
000000
000000
000000
000000
000000
000000
000000
000000
ENDCHAR
STARTCHAR C233
ENCODING -1
SWIDTH 314 0
DWIDTH 11 0
BBX 22 35 -1 -8
BITMAP
000000
000000
000000
000000
0003E0
0007C0
0007C0
0007C0
000F80
000F80
000F80
001F00
001F00
001F00
003E00
003E00
003E00
007C00
007C00
007C00
00F800
00F800
00F800
01F000
01F000
01F000
03E000
000000
000000
000000
000000
000000
000000
000000
000000
ENDCHAR
STARTCHAR C234
ENCODING 176
SWIDTH 314 0
DWIDTH 11 0
BBX 22 35 -1 -8
BITMAP
000000
000000
000000
000000
0003E0
0007C0
0007C0
0007C0
000F80
000F80
000F80
001F00
001F00
001F00
003E00
003E00
003E00
007C00
007C00
007C00
00F800
00F800
00F800
01F000
01F000
01F000
03E000
000000
000000
000000
000000
000000
000000
000000
000000
ENDCHAR
STARTCHAR C235
ENCODING 178
SWIDTH 314 0
DWIDTH 11 0
BBX 22 35 -1 -8
BITMAP
000000
000000
000000
000000
0003E0
0007C0
0007C0
0007C0
000F80
000F80
000F80
001F00
001F00
001F00
003E00
003E00
003E00
007C00
007C00
007C00
00F800
00F800
00F800
01F000
01F000
01F000
03E000
000000
000000
000000
000000
000000
000000
000000
000000
ENDCHAR
STARTCHAR C236
ENCODING -1
SWIDTH 314 0
DWIDTH 11 0
BBX 22 35 -1 -8
BITMAP
000000
000000
000000
000000
0003E0
0007C0
0007C0
0007C0
000F80
000F80
000F80
001F00
001F00
001F00
003E00
003E00
003E00
007C00
007C00
007C00
00F800
00F800
00F800
01F000
01F000
01F000
03E000
000000
000000
000000
000000
000000
000000
000000
000000
ENDCHAR
STARTCHAR C237
ENCODING -1
SWIDTH 314 0
DWIDTH 11 0
BBX 22 35 -1 -8
BITMAP
000000
000000
000000
000000
0003E0
0007C0
0007C0
0007C0
000F80
000F80
000F80
001F00
001F00
001F00
003E00
003E00
003E00
007C00
007C00
007C00
00F800
00F800
00F800
01F000
01F000
01F000
03E000
000000
000000
000000
000000
000000
000000
000000
000000
ENDCHAR
STARTCHAR C240
ENCODING 160
SWIDTH 228 0
DWIDTH 8 0
BBX 19 35 -1 -8
BITMAP
000000
000000
000000
000000
000000
000000
000000
000000
000000
000000
000000
000000
000000
000000
000000
000000
000000
000000
000000
000000
000000
000000
000000
000000
000000
000000
000000
000000
000000
000000
000000
000000
000000
000000
000000
ENDCHAR
STARTCHAR exclamdown
ENCODING 161
SWIDTH 571 0
DWIDTH 20 0
BBX 31 35 -1 -8
BITMAP
00000000
0000C0C0
0003C3C0
00018180
00000000
001FFFE0
0007C060
00038020
00070040
00070000
00070000
000E0000
000E0200
000E0200
001C0C00
001FFC00
001C0C00
00380800
00380800
00380000
00700000
00700000
00700000
00E00200
00E00600
01F01C00
0FFFF800
00000000
00000000
00000000
00000000
00000000
00000000
00000000
0C0C0000
ENDCHAR
STARTCHAR cent
ENCODING 162
SWIDTH 457 0
DWIDTH 16 0
BBX 27 35 -1 -8
BITMAP
00000000
00000000
00000000
00000000
00000000
00000000
00000000
00000000
00000000
00000600
00000600
00001800
0001F800
0007F800
0018F800
0030F800
0031B800
00E32000
00E60000
00E60000
01D80000
01D80000
01F00000
01E04000
01E08000
00FF0000
037C0000
03000000
00000000
00000000
00000000
00000000
00000000
00000000
00000000
ENDCHAR
STARTCHAR sterling
ENCODING 163
SWIDTH 457 0
DWIDTH 16 0
BBX 27 35 -1 -8
BITMAP
00000000
00000000
00000000
00000000
00007C00
00038E00
00070F00
00070600
001C0000
001C0000
001C0000
00380000
00180000
00FF8000
01FF0000
00380000
00380000
00700000
00700000
00700000
00E00000
01E00800
03F01800
0DF8E000
0DBFE000
0F9FC000
0E0E0000
00000000
00000000
00000000
00000000
00000000
00000000
00000000
00000000
ENDCHAR
STARTCHAR currency
ENCODING 164
SWIDTH 457 0
DWIDTH 16 0
BBX 27 35 -1 -8
BITMAP
00000000
00000000
00000000
00000000
00047880
001FFF80
000F9F00
00060600
001C0E00
00180600
00180600
00300C00
00381C00
00181800
007CF800
00FFFC00
00478800
00000000
00000000
00000000
00000000
00000000
00000000
00000000
00000000
00000000
00000000
00000000
00000000
00000000
00000000
00000000
00000000
00000000
00000000
ENDCHAR
STARTCHAR yen
ENCODING 165
SWIDTH 485 0
DWIDTH 17 0
BBX 28 35 -1 -8
BITMAP
00000000
00000000
00000000
00000000
00000000
003F83E0
000E00C0
00070080
000E0200
00070200
00070400
00071000
00071000
0003A000
0007C000
007FFC00
00038000
00070000
00FFF800
00070000
000E0000
000E0000
000E0000
001C0000
001C0000
003E0000
00FE0000
00000000
00000000
00000000
00000000
00000000
00000000
00000000
00000000
ENDCHAR
STARTCHAR brokenbar
ENCODING 166
SWIDTH 257 0
DWIDTH 9 0
BBX 20 35 -1 -8
BITMAP
000000
000000
000000
000000
000380
000700
000700
000700
000E00
000E00
000E00
001C00
001C00
000000
000000
000000
000000
000000
007000
007000
00E000
00E000
00E000
01C000
01C000
01C000
038000
000000
000000
000000
000000
000000
000000
000000
000000
ENDCHAR
STARTCHAR section
ENCODING 167
SWIDTH 457 0
DWIDTH 16 0
BBX 27 35 -1 -8
BITMAP
00000000
00000000
00000000
00000000
00007C00
00038E00
00030E00
00060400
000C0000
000E0000
00070000
00078000
000FC000
0019F000
0020F000
00607000
00703800
00E07000
00703000
00782000
007CC000
001F8000
000F0000
00070000
00038000
00018000
01030000
03860000
038E0000
01F00000
00000000
00000000
00000000
00000000
00000000
ENDCHAR
STARTCHAR dieresis
ENCODING 168
SWIDTH 314 0
DWIDTH 11 0
BBX 22 35 -1 -8
BITMAP
000000
000000
000000
000000
000410
001C70
001C70
000820
000000
000000
000000
000000
000000
000000
000000
000000
000000
000000
000000
000000
000000
000000
000000
000000
000000
000000
000000
000000
000000
000000
000000
000000
000000
000000
000000
ENDCHAR
STARTCHAR copyright
ENCODING 191
SWIDTH 685 0
DWIDTH 24 0
BBX 35 35 -1 -8
BITMAP
0000000000
0000000000
0000000000
0000000000
0000000000
00001F8000
00007FE000
0001E07800
0007003800
000E001C00
000C000C00
00303E8C00
0030F38C00
0070C18E00
00C3810C00
00C3000C00
00C3000C00
0187001800
01C3023800
00C3CC3000
0181F06000
00C000C000
00E001C000
00E0070000
00781E0000
001FF80000
000FC00000
0000000000
0000000000
0000000000
0000000000
0000000000
0000000000
0000000000
0000000000
ENDCHAR
STARTCHAR ordfeminine
ENCODING 170
SWIDTH 257 0
DWIDTH 9 0
BBX 20 35 -1 -8
BITMAP
000000
000000
000000
000000
0007C0
0019C0
0018C0
0001C0
000F80
003980
007180
00E700
007D80
000000
01FF00
01FF00
000000
000000
000000
000000
000000
000000
000000
000000
000000
000000
000000
000000
000000
000000
000000
000000
000000
000000
000000
ENDCHAR
STARTCHAR guillemotleft
ENCODING 171
SWIDTH 457 0
DWIDTH 16 0
BBX 27 35 -1 -8
BITMAP
00000000
00000000
00000000
00000000
00000000
00000000
00000000
00000000
00000000
00004100
0000C300
00038E00
00071C00
000E3800
0038E000
0071C000
0038E000
0038E000
001C7000
000E3800
000C3000
00041000
00000000
00000000
00000000
00000000
00000000
00000000
00000000
00000000
00000000
00000000
00000000
00000000
00000000
ENDCHAR
STARTCHAR logicalnot
ENCODING 172
SWIDTH 514 0
DWIDTH 18 0
BBX 29 35 -1 -8
BITMAP
00000000
00000000
00000000
00000000
00000000
00000000
00000000
00000000
00000000
00000000
00000000
00000000
00000000
00000000
00000000
00000000
00000000
00FFFC00
00FFFC00
00000C00
00001800
00001800
00000000
00000000
00000000
00000000
00000000
00000000
00000000
00000000
00000000
00000000
00000000
00000000
00000000
ENDCHAR
STARTCHAR hyphen
ENCODING 173
SWIDTH 285 0
DWIDTH 10 0
BBX 21 35 -1 -8
BITMAP
000000
000000
000000
000000
000000
000000
000000
000000
000000
000000
000000
000000
000000
000000
000000
000000
00FF00
01FE00
000000
000000
000000
000000
000000
000000
000000
000000
000000
000000
000000
000000
000000
000000
000000
000000
000000
ENDCHAR
STARTCHAR registered
ENCODING 174
SWIDTH 685 0
DWIDTH 24 0
BBX 35 35 -1 -8
BITMAP
0000000000
0000000000
0000000000
0000000000
0000000000
00001F8000
00007FE000
0001E07800
0007003800
000E001C00
000C000C00
0031FE0C00
0030C70C00
0070C30E00
00C1860C00
00C18C0C00
00C1F80C00
0183701800
01C3383800
00C31C3000
018F1E6000
00C000C000
00E001C000
00E0070000
00781E0000
001FF80000
000FC00000
0000000000
0000000000
0000000000
0000000000
0000000000
0000000000
0000000000
0000000000
ENDCHAR
STARTCHAR macron
ENCODING 175
SWIDTH 457 0
DWIDTH 16 0
BBX 27 35 -1 -8
BITMAP
00000000
00000000
00000000
001FFFE0
001FFFE0
00000000
00000000
00000000
00000000
00000000
00000000
00000000
00000000
00000000
00000000
00000000
00000000
00000000
00000000
00000000
00000000
00000000
00000000
00000000
00000000
00000000
00000000
00000000
00000000
00000000
00000000
00000000
00000000
00000000
00000000
ENDCHAR
STARTCHAR degree
ENCODING 156
SWIDTH 314 0
DWIDTH 11 0
BBX 22 35 -1 -8
BITMAP
000000
000000
000000
000000
0001E0
0007E0
000E70
000C30
001860
001CE0
000FC0
000F00
000000
000000
000000
000000
000000
000000
000000
000000
000000
000000
000000
000000
000000
000000
000000
000000
000000
000000
000000
000000
000000
000000
000000
ENDCHAR
STARTCHAR plusminus
ENCODING 177
SWIDTH 514 0
DWIDTH 18 0
BBX 29 35 -1 -8
BITMAP
00000000
00000000
00000000
00000000
00000000
00003000
00003000
00003000
00006000
00006000
00006000
0000C000
007FFF80
007FFF80
00018000
00018000
00018000
00030000
00030000
00030000
00060000
00000000
00000000
00000000
00000000
07FFF800
0FFFF000
00000000
00000000
00000000
00000000
00000000
00000000
00000000
00000000
ENDCHAR
STARTCHAR twosuperior
ENCODING 157
SWIDTH 228 0
DWIDTH 8 0
BBX 19 35 -1 -8
BITMAP
000000
000000
000000
000000
000F80
002180
000180
000180
000600
000C00
001800
006100
00FE00
00FC00
000000
000000
000000
000000
000000
000000
000000
000000
000000
000000
000000
000000
000000
000000
000000
000000
000000
000000
000000
000000
000000
ENDCHAR
STARTCHAR threesuperior
ENCODING 179
SWIDTH 228 0
DWIDTH 8 0
BBX 19 35 -1 -8
BITMAP
000000
000000
000000
000000
0007C0
0019C0
0010C0
000180
000F00
000380
000180
004300
006700
003E00
000000
000000
000000
000000
000000
000000
000000
000000
000000
000000
000000
000000
000000
000000
000000
000000
000000
000000
000000
000000
000000
ENDCHAR
STARTCHAR acute
ENCODING 180
SWIDTH 314 0
DWIDTH 11 0
BBX 22 35 -1 -8
BITMAP
000000
000000
000000
000000
000060
0001C0
000300
000400
000000
000000
000000
000000
000000
000000
000000
000000
000000
000000
000000
000000
000000
000000
000000
000000
000000
000000
000000
000000
000000
000000
000000
000000
000000
000000
000000
ENDCHAR
STARTCHAR mu
ENCODING 181
SWIDTH 457 0
DWIDTH 16 0
BBX 27 35 -1 -8
BITMAP
00000000
00000000
00000000
00000000
00000000
00000000
00000000
00000000
00000000
00000000
00000000
00000000
007C7C00
001C1C00
00383800
00383800
00383800
00707000
00707000
00707000
00E0E000
00E0E000
00E0E000
01C1C000
01E3F000
01FDC000
03F20000
03800000
03800000
07000000
07000000
07000000
0E000000
0E000000
00000000
ENDCHAR
STARTCHAR paragraph
ENCODING 182
SWIDTH 428 0
DWIDTH 15 0
BBX 26 35 -1 -8
BITMAP
00000000
00000000
00000000
00000000
00000000
00000000
00000000
0003FF00
001F8C00
001F8C00
003F8C00
007F1800
007F1800
007F1800
007E3000
007E3000
001E3000
000C6000
000C6000
000C6000
0018C000
0018C000
0018C000
00318000
00318000
00318000
00630000
00630000
00630000
00000000
00000000
00000000
00000000
00000000
00000000
ENDCHAR
STARTCHAR periodcentered
ENCODING 183
SWIDTH 228 0
DWIDTH 8 0
BBX 19 35 -1 -8
BITMAP
000000
000000
000000
000000
000000
000000
000000
000000
000000
000000
000000
000000
001800
003C00
007800
003000
000000
000000
000000
000000
000000
000000
000000
000000
000000
000000
000000
000000
000000
000000
000000
000000
000000
000000
000000
ENDCHAR
STARTCHAR cedilla
ENCODING 184
SWIDTH 314 0
DWIDTH 11 0
BBX 22 35 -1 -8
BITMAP
000000
000000
000000
000000
000000
000000
000000
000000
000000
000000
000000
000000
000000
000000
000000
000000
000000
000000
000000
000000
000000
000000
000000
000000
000000
000000
000000
00C000
00C000
030000
03C000
006000
00C000
1F8000
000000
ENDCHAR
STARTCHAR onesuperior
ENCODING 185
SWIDTH 228 0
DWIDTH 8 0
BBX 19 35 -1 -8
BITMAP
000000
000000
000000
000000
000300
001E00
000600
000600
000C00
000C00
000C00
001800
003C00
007E00
000000
000000
000000
000000
000000
000000
000000
000000
000000
000000
000000
000000
000000
000000
000000
000000
000000
000000
000000
000000
000000
ENDCHAR
STARTCHAR ordmasculine
ENCODING 186
SWIDTH 257 0
DWIDTH 9 0
BBX 20 35 -1 -8
BITMAP
000000
000000
000000
000000
0007C0
0018C0
003060
003060
0060C0
0060C0
0060C0
006300
003E00
000000
01FF00
01FF00
000000
000000
000000
000000
000000
000000
000000
000000
000000
000000
000000
000000
000000
000000
000000
000000
000000
000000
000000
ENDCHAR
STARTCHAR guillemotright
ENCODING 187
SWIDTH 457 0
DWIDTH 16 0
BBX 27 35 -1 -8
BITMAP
00000000
00000000
00000000
00000000
00000000
00000000
00000000
00000000
00000000
00208000
0030C000
0071C000
0038E000
001C7000
001C7000
000E3800
001C7000
0071C000
00E38000
01C70000
030C0000
02080000
00000000
00000000
00000000
00000000
00000000
00000000
00000000
00000000
00000000
00000000
00000000
00000000
00000000
ENDCHAR
STARTCHAR onequarter
ENCODING 188
SWIDTH 628 0
DWIDTH 22 0
BBX 33 35 -1 -8
BITMAP
0000000000
0000000000
0000000000
0000000000
0000000C00
0003003000
0007003000
000B006000
0006018000
0006018000
0006030000
000C0C0000
000C0C0000
001E180000
007E600000
0000600000
0000C00000
0003030000
0003070000
00060B0000
0018260000
0018460000
0030FF0000
00C1FE0000
00C00C0000
01800C0000
0300180000
0000000000
0000000000
0000000000
0000000000
0000000000
0000000000
0000000000
0000000000
ENDCHAR
STARTCHAR onehalf
ENCODING 189
SWIDTH 628 0
DWIDTH 22 0
BBX 33 35 -1 -8
BITMAP
0000000000
0000000000
0000000000
0000000000
0000001800
0006003000
000E006000
001600C000
000C018000
000C030000
000C060000
00180C0000
0018180000
003C300000
00FC600000
0000C00000
0001800000
00031F0000
0006218000
000C018000
0018030000
0030060000
00600C0000
00C0300000
0180610000
0180FE0000
0601F80000
0000000000
0000000000
0000000000
0000000000
0000000000
0000000000
0000000000
0000000000
ENDCHAR
STARTCHAR threequarters
ENCODING 190
SWIDTH 628 0
DWIDTH 22 0
BBX 33 35 -1 -8
BITMAP
0000000000
0000000000
0000000000
0000000000
0007C00C00
0019C03000
0010C03000
0001C06000
000F018000
0003018000
0001830000
00030C0000
00430C0000
0067180000
007C600000
0000600000
0000C00000
0003030000
0003070000
00060B0000
0018260000
0018460000
0030FF0000
00C1FC0000
00C00C0000
01800C0000
0300180000
0000000000
0000000000
0000000000
0000000000
0000000000
0000000000
0000000000
0000000000
ENDCHAR
STARTCHAR questiondown
ENCODING 169
SWIDTH 400 0
DWIDTH 14 0
BBX 25 35 -1 -8
BITMAP
00000000
00000000
00000000
00000000
00000000
00000000
00000000
00041000
001C7000
001C7000
00082000
00000000
00070000
001FC000
0071C000
0060C000
00E0E000
01C1C000
01FFC000
01C00000
03800000
03800000
03C00000
03C18000
03FF0000
01FE0000
00F00000
00000000
00000000
00000000
00000000
00000000
00000000
00000000
00000000
ENDCHAR
STARTCHAR cyr-A
ENCODING 225
SWIDTH 628 0
DWIDTH 22 0
BBX 33 35 -1 -8
BITMAP
0000000000
0000000000
0000000000
0000000000
0000000000
0000080000
0000080000
00000C0000
0000380000
00003C0000
00007C0000
0000F80000
0000FC0000
0001BC0000
00033C0000
00063C0000
00061E0000
000C3C0000
00183C0000
00181E0000
007FFC0000
00601E0000
00601E0000
01801E0000
01801E0000
03803F0000
1FC1FF8000
0000000000
0000000000
0000000000
0000000000
0000000000
0000000000
0000000000
0000000000
ENDCHAR
STARTCHAR cyr-Be
ENCODING 226
SWIDTH 600 0
DWIDTH 21 0
BBX 32 35 -1 -8
BITMAP
00000000
00000000
00000000
00000000
00000000
001FFFF0
0007C030
00038010
00070020
00070000
00070000
000E0000
000E0000
000E0000
001FFE00
001E0F00
001C0380
00380780
00380380
003803C0
00700780
00700780
00700780
00E01E00
00E01E00
01F07C00
0FFFE000
00000000
00000000
00000000
00000000
00000000
00000000
00000000
00000000
ENDCHAR
STARTCHAR cyr-Ve
ENCODING 247
SWIDTH 600 0
DWIDTH 21 0
BBX 32 35 -1 -8
BITMAP
00000000
00000000
00000000
00000000
00000000
001FFF80
0007C1E0
000380F0
000700E0
000700F0
000700F0
000E01E0
000E01C0
000E03C0
001C0F00
001FFE00
001C0F00
00380700
00380780
00380380
00700780
00700780
00700780
00E01E00
00E01E00
01F07C00
0FFFE000
00000000
00000000
00000000
00000000
00000000
00000000
00000000
00000000
ENDCHAR
STARTCHAR cyr-Ghe
ENCODING 231
SWIDTH 542 0
DWIDTH 19 0
BBX 30 35 -1 -8
BITMAP
00000000
00000000
00000000
00000000
00000000
001FFFF0
0007C030
00038010
00070020
00070000
00070000
000E0000
000E0000
000E0000
001C0000
001C0000
001C0000
00380000
00380000
00380000
00700000
00700000
00700000
00E00000
00E00000
01F00000
0FFC0000
00000000
00000000
00000000
00000000
00000000
00000000
00000000
00000000
ENDCHAR
STARTCHAR cyr-De
ENCODING 228
SWIDTH 685 0
DWIDTH 24 0
BBX 35 35 -1 -8
BITMAP
0000000000
0000000000
0000000000
0000000000
0000000000
0007FFFE00
0003C07C00
0001803C00
0003007800
0003007800
0003007800
000600F000
000600F000
000600F000
000C01E000
000C01E000
000C01E000
001803C000
001803C000
001803C000
0030078000
0030078000
0030078000
00600F0000
00C00F0000
01801F8000
0FFFFFC000
0E0001C000
0C0000C000
1000008000
1000008000
0000000000
0000000000
0000000000
0000000000
ENDCHAR
STARTCHAR cyr-Ie
ENCODING 229
SWIDTH 571 0
DWIDTH 20 0
BBX 31 35 -1 -8
BITMAP
00000000
00000000
00000000
00000000
00000000
001FFFE0
0007C060
00038020
00070040
00070000
00070000
000E0000
000E0200
000E0200
001C0C00
001FFC00
001C0C00
00380800
00380800
00380000
00700000
00700000
00700000
00E00200
00E00600
01F01C00
0FFFF800
00000000
00000000
00000000
00000000
00000000
00000000
00000000
00000000
ENDCHAR
STARTCHAR cyr-Zhe
ENCODING 246
SWIDTH 942 0
DWIDTH 33 0
BBX 44 35 -1 -8
BITMAP
000000000000
000000000000
000000000000
000000000000
000000000000
000F03FE0780
001F80F80FC0
001EC0701BC0
0018C0E06300
000060E0C000
000030E18000
000031C60000
000019CC0000
00001DDC0000
00007FFC0000
0000F39E0000
0000E38E0000
0003870E0000
000707070000
000707070000
001C0E070000
00380E038000
00380E038000
00E01C038000
01C01C01C000
03E03E03E000
1FF1FF1FF000
000000000000
000000000000
000000000000
000000000000
000000000000
000000000000
000000000000
000000000000
ENDCHAR
STARTCHAR cyr-Ze
ENCODING 250
SWIDTH 600 0
DWIDTH 21 0
BBX 32 35 -1 -8
BITMAP
00000000
00000000
00000000
00000000
00000000
00047F80
0007C1E0
000600F0
000800F0
000800F0
000000F0
000001E0
000201C0
000203C0
00060F00
0007FE00
00060F00
00080700
00080780
00000380
00000780
00000780
00800780
01000F00
01801E00
01F07C00
023FE000
00000000
00000000
00000000
00000000
00000000
00000000
00000000
00000000
ENDCHAR
STARTCHAR cyr-I
ENCODING 233
SWIDTH 685 0
DWIDTH 24 0
BBX 35 35 -1 -8
BITMAP
0000000000
0000000000
0000000000
0000000000
0000000000
001FF01F80
0007C03E00
0003803C00
000700F800
000700B800
000701B800
000E027000
000E067000
000E047000
001C18E000
001C10E000
001C30E000
003841C000
0038C1C000
003881C000
0073038000
0072038000
0076038000
00E8070000
00F8070000
01F00F8000
0FE07FC000
0000000000
0000000000
0000000000
0000000000
0000000000
0000000000
0000000000
0000000000
ENDCHAR
STARTCHAR cyr-I-short
ENCODING 234
SWIDTH 685 0
DWIDTH 24 0
BBX 35 35 -1 -8
BITMAP
0000000000
0000000000
0000041000
0000077000
000001C000
001FF01F80
0007C03E00
0003803C00
000700F800
000700B800
000701B800
000E027000
000E067000
000E047000
001C18E000
001C10E000
001C30E000
003841C000
0038C1C000
003881C000
0073038000
0072038000
0076038000
00E8070000
00F8070000
01F00F8000
0FE07FC000
0000000000
0000000000
0000000000
0000000000
0000000000
0000000000
0000000000
0000000000
ENDCHAR
STARTCHAR cyr-Ka
ENCODING 235
SWIDTH 657 0
DWIDTH 23 0
BBX 34 35 -1 -8
BITMAP
0000000000
0000000000
0000000000
0000000000
0000000000
001FF01E00
0007C03F00
0003806F00
0007018C00
0007030000
0007060000
000E180000
000E300000
000E600000
001DE00000
001F700000
001E700000
0038700000
0038380000
0038380000
0070380000
00701C0000
00701C0000
00E01C0000
00E00E0000
01F01F0000
0FF8FF8000
0000000000
0000000000
0000000000
0000000000
0000000000
0000000000
0000000000
0000000000
ENDCHAR
STARTCHAR cyr-El
ENCODING 236
SWIDTH 742 0
DWIDTH 26 0
BBX 37 35 -1 -8
BITMAP
0000000000
0000000000
0000000000
0000000000
0000000000
0001FFFF80
0000F01F00
0000600F00
0000C01E00
0000C01E00
0000C01E00
0001803C00
0001803C00
0001803C00
0003007800
0003007800
0003007800
000600F000
000600F000
000600F000
000C01E000
000C01E000
000C01E000
031803C000
079803C000
07B007E000
07C03FF000
0000000000
0000000000
0000000000
0000000000
0000000000
0000000000
0000000000
0000000000
ENDCHAR
STARTCHAR cyr-Em
ENCODING 237
SWIDTH 800 0
DWIDTH 28 0
BBX 39 35 -1 -8
BITMAP
0000000000
0000000000
0000000000
0000000000
0000000000
001FC001F8
0007C001E0
0003C003C0
0005C00780
0005C00780
0005E00B80
0009C01700
0009C02700
0009E02700
0011C04E00
0011E08E00
0010E08E00
0021C21C00
0021E21C00
0020E21C00
0041E83800
0040E83800
0040F03800
0080E07000
0080E07000
01C040F800
0FE087FC00
0000000000
0000000000
0000000000
0000000000
0000000000
0000000000
0000000000
0000000000
ENDCHAR
STARTCHAR cyr-En
ENCODING 238
SWIDTH 657 0
DWIDTH 23 0
BBX 34 35 -1 -8
BITMAP
0000000000
0000000000
0000000000
0000000000
0000000000
001FF1FF00
0007C07C00
0003803800
0007007000
0007007000
0007007000
000E00E000
000E00E000
000E00E000
001C01C000
001FFFC000
001C01C000
0038038000
0038038000
0038038000
0070070000
0070070000
0070070000
00E00E0000
00E00E0000
01F01F0000
0FF8FF8000
0000000000
0000000000
0000000000
0000000000
0000000000
0000000000
0000000000
0000000000
ENDCHAR
STARTCHAR cyr-O
ENCODING 239
SWIDTH 600 0
DWIDTH 21 0
BBX 32 35 -1 -8
BITMAP
00000000
00000000
00000000
00000000
00000000
00007F00
0001E3C0
000380E0
000E00E0
000E00E0
001C0070
003800E0
007800F0
007800F0
00F001E0
00F001E0
00F001E0
01E003C0
01E003C0
01E003C0
01C00700
01C00700
00E00E00
01C01C00
00E03800
0078F000
003F8000
00000000
00000000
00000000
00000000
00000000
00000000
00000000
00000000
ENDCHAR
STARTCHAR cyr-Pe
ENCODING 240
SWIDTH 657 0
DWIDTH 23 0
BBX 34 35 -1 -8
BITMAP
0000000000
0000000000
0000000000
0000000000
0000000000
001FFFFF00
0007C07C00
0003803800
0007007000
0007007000
0007007000
000E00E000
000E00E000
000E00E000
001C01C000
001C01C000
001C01C000
0038038000
0038038000
0038038000
0070070000
0070070000
0070070000
00E00E0000
00E00E0000
01F01F0000
0FF8FF8000
0000000000
0000000000
0000000000
0000000000
0000000000
0000000000
0000000000
0000000000
ENDCHAR
STARTCHAR cyr-Er
ENCODING 242
SWIDTH 542 0
DWIDTH 19 0
BBX 30 35 -1 -8
BITMAP
00000000
00000000
00000000
00000000
00000000
001FFF80
0007C3E0
000381E0
000701E0
000701E0
000701E0
000E03C0
000E03C0
000E03C0
001C0780
001C0F00
001C1F00
003FF800
00380000
00380000
00700000
00700000
00700000
00E00000
00E00000
01F00000
0FF80000
00000000
00000000
00000000
00000000
00000000
00000000
00000000
00000000
ENDCHAR
STARTCHAR cyr-Es
ENCODING 243
SWIDTH 600 0
DWIDTH 21 0
BBX 32 35 -1 -8
BITMAP
00000000
00000000
00000000
00000000
00000000
00003F10
0000F0F0
0003C030
000F0020
000E0000
001E0000
00380000
00780000
00780000
00F00000
00F00000
00F00000
01E00000
01E00000
01E00000
01E00000
01E00000
00F00080
01F00200
00FC0400
003FF800
001FC000
00000000
00000000
00000000
00000000
00000000
00000000
00000000
00000000
ENDCHAR
STARTCHAR cyr-Te
ENCODING 244
SWIDTH 600 0
DWIDTH 21 0
BBX 32 35 -1 -8
BITMAP
00000000
00000000
00000000
00000000
00000000
001FFFFC
00181C0C
00101C04
00203808
00003800
00003800
00007000
00007000
00007000
0000E000
0000E000
0000E000
0001C000
0001C000
0001C000
00038000
00038000
00038000
00070000
00070000
000F8000
007FC000
00000000
00000000
00000000
00000000
00000000
00000000
00000000
00000000
ENDCHAR
STARTCHAR cyr-U
ENCODING 245
SWIDTH 628 0
DWIDTH 22 0
BBX 33 35 -1 -8
BITMAP
0000000000
0000000000
0000000000
0000000000
0000000000
003FE0FF00
000F003C00
0007801800
0007006000
0007006000
000380C000
0007030000
0007830000
0003860000
00070C0000
0003980000
0003980000
0003600000
0003E00000
0001C00000
0003800000
0003000000
0003000000
018C000000
03CC000000
03D8000000
03E0000000
0000000000
0000000000
0000000000
0000000000
0000000000
0000000000
0000000000
0000000000
ENDCHAR
STARTCHAR cyr-Ef
ENCODING 230
SWIDTH 714 0
DWIDTH 25 0
BBX 36 35 -1 -8
BITMAP
0000000000
0000000000
0000000000
0000000000
0000000000
00007FF000
0001C71C00
0003870E00
000E0E0E00
000E0E0E00
001C0E0700
00381C0E00
00781C0F00
00781C0F00
00F0381E00
00F0381E00
00F0381E00
01E0703C00
01E0703C00
01E0703C00
01C0E07000
01C0E07000
00E0E0E000
01C1C1C000
00E1C38000
0071C70000
003FF80000
0003800000
001FF00000
0000000000
0000000000
0000000000
0000000000
0000000000
0000000000
ENDCHAR
STARTCHAR cyr-Kha
ENCODING 232
SWIDTH 657 0
DWIDTH 23 0
BBX 34 35 -1 -8
BITMAP
0000000000
0000000000
0000000000
0000000000
0000000000
001FE07E00
0007801800
0003C01000
0003C04000
0003C08000
0001E08000
0001E20000
0001E40000
0000F80000
0000F00000
0000F80000
0000780000
0001780000
00033C0000
00023C0000
00083C0000
00181E0000
00101E0000
00401E0000
00C00F0000
03800F8000
1FE07FC000
0000000000
0000000000
0000000000
0000000000
0000000000
0000000000
0000000000
0000000000
ENDCHAR
STARTCHAR cyr-Tse
ENCODING 227
SWIDTH 657 0
DWIDTH 23 0
BBX 34 35 -1 -8
BITMAP
0000000000
0000000000
0000000000
0000000000
0000000000
001FF1FF00
0007C07C00
0003803800
0007007000
0007007000
0007007000
000E00E000
000E00E000
000E00E000
001C01C000
001C01C000
001C01C000
0038038000
0038038000
0038038000
0070070000
0070070000
0070070000
00E00E0000
00E00E0000
01F01F0000
0FFFFF8000
0000038000
0000018000
0000010000
0000010000
0000000000
0000000000
0000000000
0000000000
ENDCHAR
STARTCHAR cyr-Che
ENCODING 254
SWIDTH 657 0
DWIDTH 23 0
BBX 34 35 -1 -8
BITMAP
0000000000
0000000000
0000000000
0000000000
0000000000
001FF1FF00
0007C07C00
0003803800
0007007000
0007007000
0007007000
000E00E000
000E00E000
000E00E000
001C01C000
001C01C000
000FFFC000
0000038000
0000038000
0000038000
0000070000
0000070000
0000070000
00000E0000
00000E0000
00001F0000
0000FF8000
0000000000
0000000000
0000000000
0000000000
0000000000
0000000000
0000000000
0000000000
ENDCHAR
STARTCHAR cyr-Sha
ENCODING 251
SWIDTH 942 0
DWIDTH 33 0
BBX 44 35 -1 -8
BITMAP
000000000000
000000000000
000000000000
000000000000
000000000000
001FF3FE7FC0
0007C0F81F00
000380700E00
000700E01C00
000700E01C00
000700E01C00
000E01C03800
000E01C03800
000E01C03800
001C03807000
001C03807000
001C03807000
00380700E000
00380700E000
00380700E000
00700E01C000
00700E01C000
00700E01C000
00E01C038000
00E01C038000
01F03E07C000
0FFFFFFFE000
000000000000
000000000000
000000000000
000000000000
000000000000
000000000000
000000000000
000000000000
ENDCHAR
STARTCHAR cyr-Shcha
ENCODING 253
SWIDTH 942 0
DWIDTH 33 0
BBX 44 35 -1 -8
BITMAP
000000000000
000000000000
000000000000
000000000000
000000000000
001FF3FE7FC0
0007C0F81F00
000380700E00
000700E01C00
000700E01C00
000700E01C00
000E01C03800
000E01C03800
000E01C03800
001C03807000
001C03807000
001C03807000
00380700E000
00380700E000
00380700E000
00700E01C000
00700E01C000
00700E01C000
00E01C038000
00E01C038000
01F03E07C000
0FFFFFFFE000
00000000E000
000000006000
000000004000
000000004000
000000000000
000000000000
000000000000
000000000000
ENDCHAR
STARTCHAR cyr-Ier
ENCODING 255
SWIDTH 685 0
DWIDTH 24 0
BBX 35 35 -1 -8
BITMAP
0000000000
0000000000
0000000000
0000000000
0000000000
001FFE0000
001CF80000
0018700000
0020E00000
0020E00000
0000E00000
0001C00000
0001C00000
0001C00000
0003FFC000
0003C1E000
0003807000
000700F000
0007007000
0007007800
000E00F000
000E00F000
000E00F000
001C03C000
001C03C000
003E0F8000
01FFFC0000
0000000000
0000000000
0000000000
0000000000
0000000000
0000000000
0000000000
0000000000
ENDCHAR
STARTCHAR cyr-Iery
ENCODING 249
SWIDTH 828 0
DWIDTH 29 0
BBX 40 35 -1 -8
BITMAP
0000000000
0000000000
0000000000
0000000000
0000000000
001FF007FC
0007C001F0
00038000E0
00070001C0
00070001C0
00070001C0
000E000380
000E000380
000E000380
001FFE0700
001E0F0700
001C038700
0038078E00
0038038E00
003803CE00
0070079C00
0070079C00
0070079C00
00E01E3800
00E01E3800
01F07C7C00
0FFFE3FE00
0000000000
0000000000
0000000000
0000000000
0000000000
0000000000
0000000000
0000000000
ENDCHAR
STARTCHAR cyr-Ierik
ENCODING 248
SWIDTH 600 0
DWIDTH 21 0
BBX 32 35 -1 -8
BITMAP
00000000
00000000
00000000
00000000
00000000
001FF000
0007C000
00038000
00070000
00070000
00070000
000E0000
000E0000
000E0000
001FFE00
001E0F00
001C0380
00380780
00380380
003803C0
00700780
00700780
00700780
00E01E00
00E01E00
01F07C00
0FFFE000
00000000
00000000
00000000
00000000
00000000
00000000
00000000
00000000
ENDCHAR
STARTCHAR cyr-E-rev
ENCODING 252
SWIDTH 600 0
DWIDTH 21 0
BBX 32 35 -1 -8
BITMAP
00000000
00000000
00000000
00000000
00000000
00047FC0
0007C0F0
00060078
00080078
00080078
00000078
000000F0
000000F0
000200F0
000601E0
0007FFE0
000601E0
000803C0
000003C0
000003C0
00000780
00000780
00800780
01000F00
01801E00
01F07C00
023FE000
00000000
00000000
00000000
00000000
00000000
00000000
00000000
00000000
ENDCHAR
STARTCHAR cyr-Yu
ENCODING 224
SWIDTH 857 0
DWIDTH 30 0
BBX 41 35 -1 -8
BITMAP
000000000000
000000000000
000000000000
000000000000
000000000000
001FF03F8000
0007C0F1E000
000381C07000
000707007000
000707007000
00070E003800
000E1C007000
000E3C007800
000E3C007800
001C7800F000
001FF800F000
001C7800F000
0038F001E000
0038F001E000
0038F001E000
0070E0038000
0070E0038000
007070070000
00E0E00E0000
00E0701C0000
01F03C780000
0FF81FC00000
000000000000
000000000000
000000000000
000000000000
000000000000
000000000000
000000000000
000000000000
ENDCHAR
STARTCHAR cyr-Ya
ENCODING 241
SWIDTH 628 0
DWIDTH 22 0
BBX 33 35 -1 -8
BITMAP
0000000000
0000000000
0000000000
0000000000
0000000000
00007FFE00
0001F0F800
0001E07000
000780E000
000780E000
000780E000
000F01C000
000F01C000
000781C000
000F838000
0003FF8000
0000F38000
0001C70000
0003870000
0007870000
000E0E0000
001C0E0000
003C0E0000
00701C0000
00E01C0000
01E03E0000
1F81FF0000
0000000000
0000000000
0000000000
0000000000
0000000000
0000000000
0000000000
0000000000
ENDCHAR
STARTCHAR cyr-a
ENCODING 193
SWIDTH 371 0
DWIDTH 13 0
BBX 24 35 -1 -8
BITMAP
000000
000000
000000
000000
000000
000000
000000
000000
000000
000000
000000
000000
000F80
0038C0
00E1C0
00E1C0
0041C0
000780
001F80
007380
01C700
038700
038700
070E00
078E00
03F780
038600
000000
000000
000000
000000
000000
000000
000000
000000
ENDCHAR
STARTCHAR cyr-be
ENCODING 194
SWIDTH 428 0
DWIDTH 15 0
BBX 26 35 -1 -8
BITMAP
00000000
00000000
00000100
00000300
0000FE00
00070000
000E0000
000E0000
00380000
00380000
00380000
00700000
0077C000
007FF000
00F0F000
00E07000
00E07000
01C07000
01C07000
01C07000
0380E000
0380E000
0381C000
07038000
07070000
039E0000
03F00000
00000000
00000000
00000000
00000000
00000000
00000000
00000000
00000000
ENDCHAR
STARTCHAR cyr-ve
ENCODING 215
SWIDTH 371 0
DWIDTH 13 0
BBX 24 35 -1 -8
BITMAP
000000
000000
000000
000000
000000
000000
000000
000000
000000
000000
000000
000000
007FC0
003FE0
0030C0
0030C0
0030C0
006180
007F00
007F80
00C380
00C180
00C180
018300
018700
03FE00
0FF800
000000
000000
000000
000000
000000
000000
000000
000000
ENDCHAR
STARTCHAR cyr-ghe
ENCODING 199
SWIDTH 400 0
DWIDTH 14 0
BBX 25 35 -1 -8
BITMAP
00000000
00000000
00000000
00000000
00000000
00000000
00000000
00000000
00000000
00000000
00000000
00000000
007FF800
003E1800
00381000
00381000
00380000
00700000
00700000
00700000
00E00000
00E00000
00E00000
01C00000
01C00000
03E00000
0FE00000
00000000
00000000
00000000
00000000
00000000
00000000
00000000
00000000
ENDCHAR
STARTCHAR cyr-de
ENCODING 196
SWIDTH 457 0
DWIDTH 16 0
BBX 27 35 -1 -8
BITMAP
00000000
00000000
00000000
00000000
00000000
00000000
00000000
00000000
00000000
00000000
00000000
00000000
007FFE00
003C7C00
00307000
00307000
00307000
0060E000
0060E000
0060E000
00C1C000
00C1C000
00C1C000
01838000
01838000
0307C000
0FFFC000
0C00C000
08004000
10008000
00000000
00000000
00000000
00000000
00000000
ENDCHAR
STARTCHAR cyr-ie
ENCODING 197
SWIDTH 400 0
DWIDTH 14 0
BBX 25 35 -1 -8
BITMAP
00000000
00000000
00000000
00000000
00000000
00000000
00000000
00000000
00000000
00000000
00000000
00000000
00070000
001FC000
0071C000
0060C000
00E0E000
01C1C000
01FFC000
01C00000
03800000
03800000
03800000
03818000
03C30000
01FE0000
00F00000
00000000
00000000
00000000
00000000
00000000
00000000
00000000
00000000
ENDCHAR
STARTCHAR cyr-zhe
ENCODING 214
SWIDTH 771 0
DWIDTH 27 0
BBX 38 35 -1 -8
BITMAP
0000000000
0000000000
0000000000
0000000000
0000000000
0000000000
0000000000
0000000000
0000000000
0000000000
0000000000
0000000000
003C3F8780
007A1F0BC0
00741C1700
00021C2000
00011C4000
0001390000
0000FE0000
0001FF0000
0007770000
000E738000
001C71C000
0070E1C000
00E0E0E000
01C1F07000
0FE7F3F800
0000000000
0000000000
0000000000
0000000000
0000000000
0000000000
0000000000
0000000000
ENDCHAR
STARTCHAR cyr-z
ENCODING 218
SWIDTH 371 0
DWIDTH 13 0
BBX 24 35 -1 -8
BITMAP
000000
000000
000000
000000
000000
000000
000000
000000
000000
000000
000000
000000
001FC0
003FE0
00E1E0
00C0E0
0000E0
0001C0
000380
001F00
000700
000380
000380
060700
070700
03FE00
01F800
000000
000000
000000
000000
000000
000000
000000
000000
ENDCHAR
STARTCHAR cyr-i
ENCODING 201
SWIDTH 542 0
DWIDTH 19 0
BBX 30 35 -1 -8
BITMAP
00000000
00000000
00000000
00000000
00000000
00000000
00000000
00000000
00000000
00000000
00000000
00000000
007F0FC0
003E0F80
00383E00
00382E00
00386E00
00709C00
00719C00
00711C00
00E63800
00E43800
00EC3800
01D07000
01F07000
03E0F800
0FC3F800
00000000
00000000
00000000
00000000
00000000
00000000
00000000
00000000
ENDCHAR
STARTCHAR cyr-i-short
ENCODING 202
SWIDTH 542 0
DWIDTH 19 0
BBX 30 35 -1 -8
BITMAP
00000000
00000000
00000000
00000000
00000000
00000000
00000000
00000000
0000C600
0000C600
00007800
00000000
007F0FC0
003E0F80
00383E00
00382E00
00386E00
00709C00
00719C00
00711C00
00E63800
00E43800
00EC3800
01D07000
01F07000
03E0F800
0FC3F800
00000000
00000000
00000000
00000000
00000000
00000000
00000000
00000000
ENDCHAR
STARTCHAR cyr-ka
ENCODING 203
SWIDTH 485 0
DWIDTH 17 0
BBX 28 35 -1 -8
BITMAP
00000000
00000000
00000000
00000000
00000000
00000000
00000000
00000000
00000000
00000000
00000000
00000000
007F0F00
003E1780
00384E00
00388000
00390000
007C0000
007C0000
007E0000
00EE0000
00E70000
00E38000
01C38000
01C1C000
03E0E000
0FE7E000
00000000
00000000
00000000
00000000
00000000
00000000
00000000
00000000
ENDCHAR
STARTCHAR cyr-el
ENCODING 204
SWIDTH 542 0
DWIDTH 19 0
BBX 30 35 -1 -8
BITMAP
00000000
00000000
00000000
00000000
00000000
00000000
00000000
00000000
00000000
00000000
00000000
00000000
000FFFC0
00078F80
00060E00
00060E00
00060E00
000C1C00
000C1C00
000C1C00
00183800
00183800
00183800
00307000
07307000
0760F800
0783F800
00000000
00000000
00000000
00000000
00000000
00000000
00000000
00000000
ENDCHAR
STARTCHAR cyr-em
ENCODING 205
SWIDTH 657 0
DWIDTH 23 0
BBX 34 35 -1 -8
BITMAP
0000000000
0000000000
0000000000
0000000000
0000000000
0000000000
0000000000
0000000000
0000000000
0000000000
0000000000
0000000000
007800FC00
003C00F800
003803E000
003C02E000
002C06E000
005C09C000
004C19C000
004E11C000
008C638000
008E438000
0086C38000
010F070000
0107070000
03860F8000
0F843F8000
0000000000
0000000000
0000000000
0000000000
0000000000
0000000000
0000000000
0000000000
ENDCHAR
STARTCHAR cyr-en
ENCODING 206
SWIDTH 542 0
DWIDTH 19 0
BBX 30 35 -1 -8
BITMAP
00000000
00000000
00000000
00000000
00000000
00000000
00000000
00000000
00000000
00000000
00000000
00000000
007F1FC0
003E0F80
00380E00
00380E00
00380E00
00701C00
00701C00
007FFC00
00E03800
00E03800
00E03800
01C07000
01C07000
03E0F800
0FE3F800
00000000
00000000
00000000
00000000
00000000
00000000
00000000
00000000
ENDCHAR
STARTCHAR cyr-o
ENCODING 207
SWIDTH 485 0
DWIDTH 17 0
BBX 28 35 -1 -8
BITMAP
00000000
00000000
00000000
00000000
00000000
00000000
00000000
00000000
00000000
00000000
00000000
00000000
0003E000
000E3800
00383800
00701C00
00600C00
01C01C00
01C01C00
01C01C00
03803800
03803800
01C07000
0380E000
01C1C000
00E38000
007C0000
00000000
00000000
00000000
00000000
00000000
00000000
00000000
00000000
ENDCHAR
STARTCHAR cyr-pe
ENCODING 208
SWIDTH 542 0
DWIDTH 19 0
BBX 30 35 -1 -8
BITMAP
00000000
00000000
00000000
00000000
00000000
00000000
00000000
00000000
00000000
00000000
00000000
00000000
007FFFC0
003E0F80
00380E00
00380E00
00380E00
00701C00
00701C00
00701C00
00E03800
00E03800
00E03800
01C07000
01C07000
03E0F800
0FE3F800
00000000
00000000
00000000
00000000
00000000
00000000
00000000
00000000
ENDCHAR
STARTCHAR cyr-er
ENCODING 210
SWIDTH 485 0
DWIDTH 17 0
BBX 28 35 -1 -8
BITMAP
00000000
00000000
00000000
00000000
00000000
00000000
00000000
00000000
00000000
00000000
00000000
00000000
007FF000
003FFC00
00383C00
00381C00
00381E00
00701C00
00701C00
00701C00
00E03800
00E03800
00E07000
01C0E000
01C1C000
01C78000
03FC0000
03800000
03800000
07000000
07000000
07000000
0E000000
1F000000
3F800000
ENDCHAR
STARTCHAR cyr-es
ENCODING 211
SWIDTH 400 0
DWIDTH 14 0
BBX 25 35 -1 -8
BITMAP
00000000
00000000
00000000
00000000
00000000
00000000
00000000
00000000
00000000
00000000
00000000
00000000
00078000
001CE000
0070E000
0060E000
00E04000
01C00000
01C00000
01C00000
03800000
03800000
03C00000
03C08000
03E10000
01FE0000
00F80000
00000000
00000000
00000000
00000000
00000000
00000000
00000000
00000000
ENDCHAR
STARTCHAR cyr-te
ENCODING 212
SWIDTH 485 0
DWIDTH 17 0
BBX 28 35 -1 -8
BITMAP
00000000
00000000
00000000
00000000
00000000
00000000
00000000
00000000
00000000
00000000
00000000
00000000
007FFF00
0063E300
00838200
00838200
00038000
00070000
00070000
00070000
000E0000
000E0000
000E0000
001C0000
001C0000
003E0000
00FE0000
00000000
00000000
00000000
00000000
00000000
00000000
00000000
00000000
ENDCHAR
STARTCHAR cyr-u
ENCODING 213
SWIDTH 485 0
DWIDTH 17 0
BBX 28 35 -1 -8
BITMAP
00000000
00000000
00000000
00000000
00000000
00000000
00000000
00000000
00000000
00000000
00000000
00000000
007F1F80
001C0600
00380800
001C0800
001C1000
001C2000
001C2000
000E4000
001C8000
000E8000
000F0000
000E0000
000C0000
00040000
00080000
00100000
00100000
00400000
00400000
0C800000
3D000000
3E000000
1C000000
ENDCHAR
STARTCHAR cyr-ef
ENCODING 198
SWIDTH 542 0
DWIDTH 19 0
BBX 30 35 -1 -8
BITMAP
00000000
00000000
00000000
00000000
00000000
00000000
00000000
00000000
00000000
00000000
00000000
00000000
0003FE00
000EEF00
0031CF00
0071C700
0061C780
01C38700
01C38700
01C38700
03870E00
03870E00
03870C00
038E3800
03CE3000
01EEE000
00FF0000
001C0000
001C0000
00380000
00380000
00380000
00700000
00F80000
01FC0000
ENDCHAR
STARTCHAR cyr-kha
ENCODING 200
SWIDTH 485 0
DWIDTH 17 0
BBX 28 35 -1 -8
BITMAP
00000000
00000000
00000000
00000000
00000000
00000000
00000000
00000000
00000000
00000000
00000000
00000000
007E3E00
001C1800
001C6000
001C4000
000EC000
000F0000
000F0000
00070000
001F0000
00170000
00338000
00438000
00C38000
0181C000
0FCFE000
00000000
00000000
00000000
00000000
00000000
00000000
00000000
00000000
ENDCHAR
STARTCHAR cyr-tse
ENCODING 195
SWIDTH 542 0
DWIDTH 19 0
BBX 30 35 -1 -8
BITMAP
00000000
00000000
00000000
00000000
00000000
00000000
00000000
00000000
00000000
00000000
00000000
00000000
007F1FC0
003E0F80
00380E00
00380E00
00380E00
00701C00
00701C00
00701C00
00E03800
00E03800
00E03800
01C07000
01C07000
03E0F000
0FFFF800
00001800
00000800
00001000
00000000
00000000
00000000
00000000
00000000
ENDCHAR
STARTCHAR cyr-che
ENCODING 222
SWIDTH 542 0
DWIDTH 19 0
BBX 30 35 -1 -8
BITMAP
00000000
00000000
00000000
00000000
00000000
00000000
00000000
00000000
00000000
00000000
00000000
00000000
007F1FC0
003E0F80
00380E00
00380E00
00380E00
00701C00
00701C00
00701C00
007FF800
00003800
00003800
00007000
00007000
0000F800
0003F800
00000000
00000000
00000000
00000000
00000000
00000000
00000000
00000000
ENDCHAR
STARTCHAR cyr-sha
ENCODING 219
SWIDTH 771 0
DWIDTH 27 0
BBX 38 35 -1 -8
BITMAP
0000000000
0000000000
0000000000
0000000000
0000000000
0000000000
0000000000
0000000000
0000000000
0000000000
0000000000
0000000000
007F3F9FC0
003E1F0F80
00381C0E00
00381C0E00
00381C0E00
0070381C00
0070381C00
0070381C00
00E0703800
00E0703800
00E0703800
01C0E07000
01C0E07000
03E1F0F800
0FFFFFF800
0000000000
0000000000
0000000000
0000000000
0000000000
0000000000
0000000000
0000000000
ENDCHAR
STARTCHAR cyr-shcha
ENCODING 221
SWIDTH 771 0
DWIDTH 27 0
BBX 38 35 -1 -8
BITMAP
0000000000
0000000000
0000000000
0000000000
0000000000
0000000000
0000000000
0000000000
0000000000
0000000000
0000000000
0000000000
007F3F9FC0
003E1F0F80
00381C0E00
00381C0E00
00381C0E00
0070381C00
0070381C00
0070381C00
00E0703800
00E0703800
00E0703800
01C0E07000
01C0E07000
03E1F0F000
0FFFFFF800
0000001800
0000000800
0000001000
0000000000
0000000000
0000000000
0000000000
0000000000
ENDCHAR
STARTCHAR cyr-ier
ENCODING 223
SWIDTH 514 0
DWIDTH 18 0
BBX 29 35 -1 -8
BITMAP
00000000
00000000
00000000
00000000
00000000
00000000
00000000
00000000
00000000
00000000
00000000
00000000
007FE000
0067C000
00C70000
00870000
00870000
000E0000
000FF000
000FFC00
001C3C00
001C1C00
001C1C00
00383800
00387800
007FF000
01FF8000
00000000
00000000
00000000
00000000
00000000
00000000
00000000
00000000
ENDCHAR
STARTCHAR cyr-iery
ENCODING 217
SWIDTH 628 0
DWIDTH 22 0
BBX 33 35 -1 -8
BITMAP
0000000000
0000000000
0000000000
0000000000
0000000000
0000000000
0000000000
0000000000
0000000000
0000000000
0000000000
0000000000
007F03F800
003E01F000
003801C000
003801C000
003801C000
0070038000
007F838000
007FE38000
00E1E70000
00E0E70000
00E0E70000
01C1CE0000
01C3CE0000
03FF9F0000
0FFC7F0000
0000000000
0000000000
0000000000
0000000000
0000000000
0000000000
0000000000
0000000000
ENDCHAR
STARTCHAR cyr-ierik
ENCODING 216
SWIDTH 428 0
DWIDTH 15 0
BBX 26 35 -1 -8
BITMAP
00000000
00000000
00000000
00000000
00000000
00000000
00000000
00000000
00000000
00000000
00000000
00000000
007F0000
003E0000
00380000
00380000
00380000
00700000
007F8000
007FE000
00E1E000
00E0E000
00E0E000
01C1C000
01C3C000
03FF8000
0FFC0000
00000000
00000000
00000000
00000000
00000000
00000000
00000000
00000000
ENDCHAR
STARTCHAR cyr-e-rev
ENCODING 220
SWIDTH 400 0
DWIDTH 14 0
BBX 25 35 -1 -8
BITMAP
00000000
00000000
00000000
00000000
00000000
00000000
00000000
00000000
00000000
00000000
00000000
00000000
001FC000
003FE000
00E0E000
00C07000
00807000
0000E000
0000E000
003FE000
0001C000
0001C000
0201C000
06038000
07070000
03FE0000
01F80000
00000000
00000000
00000000
00000000
00000000
00000000
00000000
00000000
ENDCHAR
STARTCHAR cyr-yu
ENCODING 192
SWIDTH 685 0
DWIDTH 24 0
BBX 35 35 -1 -8
BITMAP
0000000000
0000000000
0000000000
0000000000
0000000000
0000000000
0000000000
0000000000
0000000000
0000000000
0000000000
0000000000
007F07C000
003E1C7000
0038707000
0038E03800
0038C01800
0073803800
007F803800
007F803800
00E7007000
00E7007000
00E380E000
01C701C000
01C3838000
03E1C70000
0FE0F80000
0000000000
0000000000
0000000000
0000000000
0000000000
0000000000
0000000000
0000000000
ENDCHAR
STARTCHAR cyr-ya
ENCODING 209
SWIDTH 542 0
DWIDTH 19 0
BBX 30 35 -1 -8
BITMAP
00000000
00000000
00000000
00000000
00000000
00000000
00000000
00000000
00000000
00000000
00000000
00000000
0003FFC0
00070780
001C0E00
001C0E00
001C0E00
00381C00
001C1C00
000FFC00
00073800
000E3800
001C3800
00707000
00E07000
01C0F800
0F83F800
00000000
00000000
00000000
00000000
00000000
00000000
00000000
00000000
ENDCHAR
ENDFONT
